<?xml version="1.0" standalone="no"?>
<!DOCTYPE svg PUBLIC "-//W3C//DTD SVG 20010904//EN"
 "http://www.w3.org/TR/2001/REC-SVG-20010904/DTD/svg10.dtd">
<svg version="1.0" xmlns="http://www.w3.org/2000/svg"
 width="3024.000000pt" height="2911.000000pt" viewBox="0 0 3024.000000 2911.000000"
 preserveAspectRatio="xMidYMid meet">
<metadata>
Created by potrace 1.16, written by Peter Selinger 2001-2019
</metadata>
<g transform="translate(0.000000,2911.000000) scale(0.100000,-0.100000)"
fill="#FFFFFF" stroke="none">
<path d="M15048 25810 c33 -31 27 -38 -30 -32 -50 4 -52 3 -33 -12 11 -8 26
-16 33 -16 6 0 12 -5 12 -11 0 -7 -10 -9 -27 -5 -16 4 -68 9 -118 12 -49 3
-107 12 -127 21 -20 8 -47 13 -60 10 -40 -10 -95 -32 -113 -47 -14 -11 -31
-12 -108 -1 -51 7 -100 17 -109 22 -9 5 -42 9 -73 9 -49 0 -58 -3 -62 -21 -4
-15 -11 -19 -28 -15 -37 9 -180 -19 -252 -50 -17 -8 -36 -14 -42 -14 -6 0 -19
-4 -29 -10 -21 -12 -97 -39 -132 -47 -14 -4 -41 -16 -60 -28 -19 -12 -57 -32
-84 -45 -26 -12 -68 -42 -93 -66 -25 -24 -53 -44 -63 -44 -10 0 -20 -5 -22
-11 -4 -11 -18 -14 -72 -18 -15 -1 -16 -4 -6 -16 16 -19 14 -20 -27 -28 -38
-7 -44 5 -10 21 35 17 -4 15 -44 -3 -27 -11 -29 -14 -12 -15 19 0 20 -3 10
-24 -12 -25 -43 -36 -103 -36 -38 0 -42 6 -16 27 9 8 -6 3 -35 -11 -28 -14
-70 -28 -93 -32 -23 -4 -47 -13 -55 -20 -8 -8 -35 -14 -67 -14 -78 0 -126 -16
-130 -43 -3 -19 -16 -26 -88 -45 -47 -13 -98 -26 -115 -29 -16 -3 -37 -11 -45
-18 -8 -6 -23 -15 -33 -18 -10 -4 -15 -12 -12 -17 4 -6 -9 -28 -29 -50 -19
-21 -40 -57 -47 -80 -10 -33 -30 -57 -100 -117 -48 -41 -89 -78 -91 -81 -2 -4
-25 -25 -53 -47 -52 -41 -98 -82 -200 -176 -64 -59 -139 -113 -174 -124 -12
-3 -21 -11 -21 -16 0 -5 -7 -9 -15 -9 -8 0 -22 -12 -32 -26 -30 -43 -96 -110
-122 -124 -21 -11 -22 -13 -7 -28 12 -13 18 -13 28 -4 18 18 38 14 38 -7 0
-19 -52 -71 -70 -71 -5 0 -7 -7 -4 -15 8 -21 -54 -112 -92 -134 -34 -20 -150
-168 -165 -211 -5 -14 -16 -37 -24 -52 -19 -34 -19 -68 0 -68 8 0 15 -8 15
-18 0 -32 12 -32 34 0 13 20 37 37 64 46 40 13 44 13 57 -4 11 -15 15 -16 29
-5 13 11 19 11 31 1 12 -10 18 -10 30 0 19 15 28 9 19 -14 -7 -18 -29 -21 -39
-6 -4 6 -16 3 -32 -10 -14 -11 -34 -20 -44 -20 -21 0 -49 -36 -49 -62 0 -11
-8 -18 -20 -18 -11 0 -20 5 -20 10 0 6 -11 10 -25 10 -28 0 -30 -3 -13 -29 13
-22 -3 -51 -28 -51 -8 0 -20 -11 -26 -25 -6 -14 -15 -25 -20 -25 -4 0 -8 -5
-8 -11 0 -6 -14 -28 -31 -48 -41 -48 -119 -171 -119 -187 0 -8 5 -14 10 -14
19 0 10 -30 -15 -46 -17 -11 -25 -25 -25 -44 0 -16 -6 -35 -13 -42 -14 -15
-20 -108 -7 -108 5 0 12 -10 16 -22 6 -21 8 -21 39 16 22 27 38 37 49 33 14
-6 13 -12 -10 -54 -14 -26 -38 -60 -55 -75 -16 -15 -29 -32 -29 -38 0 -6 -11
-28 -25 -50 -14 -22 -25 -48 -25 -59 0 -10 -6 -21 -13 -24 -18 -7 -49 -117
-49 -174 0 -27 7 -52 16 -62 9 -10 16 -22 16 -28 0 -6 6 -13 12 -15 19 -7 13
-83 -8 -115 -18 -26 -19 -48 -15 -368 6 -465 6 -450 1 -545 -2 -47 -1 -356 2
-687 4 -362 3 -605 -3 -609 -21 -13 -3 -131 34 -214 8 -19 22 -57 30 -85 13
-43 13 -55 1 -84 -18 -42 -13 -58 18 -63 16 -2 22 -9 21 -23 -2 -11 1 -38 6
-60 6 -22 12 -52 16 -67 6 -32 30 -37 38 -8 3 11 10 20 15 20 12 0 14 -80 2
-95 -4 -5 -10 -36 -12 -67 -4 -54 -3 -57 20 -63 14 -3 30 -1 35 4 31 31 50 -6
22 -43 -11 -15 -28 -20 -68 -21 -65 -1 -147 -38 -147 -66 0 -10 -4 -19 -10
-19 -5 0 -10 -11 -10 -25 0 -27 7 -28 105 -28 22 0 35 -2 29 -4 -7 -2 -10 -12
-7 -22 3 -13 11 -17 28 -14 12 3 26 0 29 -6 4 -6 19 -11 34 -11 15 0 35 -8 43
-17 9 -10 26 -26 38 -35 18 -15 27 -49 22 -80 0 -5 3 -9 9 -9 5 -1 16 -2 23
-3 6 -1 22 1 35 6 17 6 22 4 22 -10 0 -10 -5 -23 -11 -29 -15 -15 -3 -33 21
-33 13 0 22 -9 26 -27 3 -16 7 -33 9 -39 2 -7 -3 -21 -11 -33 -9 -12 -11 -21
-5 -21 16 0 13 -36 -3 -49 -10 -8 -16 -9 -21 -1 -14 22 -36 10 -33 -17 2 -24
8 -29 36 -31 20 -2 32 -8 29 -15 -3 -7 -10 -11 -16 -9 -7 1 -9 -7 -5 -23 5
-20 3 -24 -9 -20 -10 4 -17 -2 -21 -21 -4 -14 -10 -24 -13 -20 -3 3 -12 1 -18
-4 -9 -8 -9 -20 -1 -52 16 -58 36 -94 45 -79 4 7 9 -9 10 -35 0 -26 6 -53 12
-61 16 -19 3 -57 -36 -109 -19 -25 -35 -50 -35 -55 0 -5 -6 -9 -12 -9 -22 -1
-83 -65 -105 -108 -11 -23 -23 -38 -27 -34 -4 4 -5 -5 -1 -20 5 -21 3 -29 -10
-34 -14 -6 -16 -15 -11 -46 4 -22 2 -48 -5 -59 -14 -27 -14 -252 0 -257 5 -2
19 -22 30 -46 23 -46 39 -64 105 -116 25 -19 45 -41 45 -48 1 -7 6 -20 12 -30
10 -15 7 -24 -12 -46 -22 -26 -24 -26 -31 -6 -4 11 -16 20 -28 20 -11 0 -20 4
-20 9 0 5 -9 12 -19 16 -26 8 -83 64 -100 98 -8 15 -23 27 -33 27 -11 0 -18 7
-18 20 0 11 -4 20 -9 20 -13 0 -54 129 -46 148 3 9 3 13 -1 10 -7 -8 -44 34
-44 50 0 5 7 15 15 22 15 12 22 45 8 37 -9 -6 -8 113 1 183 3 25 8 83 10 129
3 46 10 88 15 95 5 6 10 30 11 54 1 23 2 57 3 76 1 19 5 32 8 30 11 -7 32 124
25 160 -4 19 -2 65 4 103 6 38 12 81 14 96 1 15 6 30 9 34 4 3 7 19 7 34 0 15
8 41 18 59 16 30 16 32 0 44 -22 17 -23 36 -2 36 13 0 11 4 -6 18 -19 15 -21
22 -11 40 13 25 14 33 3 30 -5 -2 -25 11 -46 27 -72 57 -146 62 -146 10 0 -18
-49 -75 -65 -75 -3 0 -9 0 -15 0 -5 0 -10 -6 -10 -13 0 -8 -10 -26 -23 -41
-13 -14 -29 -53 -36 -86 -7 -33 -20 -65 -27 -71 -15 -12 -54 -133 -54 -168 0
-12 -7 -24 -15 -27 -8 -4 -15 -12 -15 -20 0 -8 -5 -13 -12 -12 -15 4 -11 -84
4 -93 5 -3 10 -39 10 -80 0 -50 6 -81 16 -98 13 -19 16 -51 15 -154 -1 -108 2
-142 19 -194 13 -39 26 -62 33 -59 7 2 12 -7 12 -26 0 -16 4 -33 9 -36 6 -4
16 -26 23 -49 8 -23 17 -41 20 -38 4 2 8 -17 9 -43 1 -25 5 -48 9 -51 5 -3 9
-17 11 -30 1 -13 9 -36 16 -50 8 -14 26 -48 40 -76 15 -27 37 -68 50 -90 13
-22 22 -43 19 -47 -2 -5 3 -8 12 -8 9 0 15 -6 14 -12 -2 -20 12 -58 22 -58 5
0 9 -7 9 -16 0 -9 14 -39 30 -66 17 -26 30 -55 30 -62 0 -8 7 -16 15 -20 8 -3
15 -13 15 -21 0 -16 50 -96 77 -123 7 -7 13 -19 13 -25 0 -7 9 -18 20 -25 20
-12 28 -42 11 -42 -16 0 -19 -74 -4 -104 l15 -29 23 27 c12 14 29 26 37 26 8
0 20 11 28 24 7 14 18 22 26 19 8 -3 28 0 45 7 16 7 32 10 36 7 3 -3 10 -43
15 -89 21 -169 16 -211 -24 -200 -10 2 -25 -1 -33 -8 -13 -11 -12 -15 11 -26
14 -8 34 -14 44 -14 42 0 90 -88 90 -166 0 -53 31 -156 56 -190 13 -17 24 -41
24 -52 0 -12 14 -50 30 -84 17 -34 30 -66 30 -71 0 -6 6 -18 14 -26 8 -9 21
-38 30 -65 9 -27 26 -60 36 -74 11 -13 20 -34 20 -45 0 -11 11 -34 24 -51 15
-20 25 -50 28 -84 4 -43 12 -61 46 -101 28 -33 41 -58 41 -77 0 -16 2 -40 4
-54 2 -14 5 -31 6 -37 0 -7 19 -24 40 -38 33 -20 40 -30 39 -55 -1 -19 6 -36
17 -44 13 -9 15 -15 7 -20 -7 -4 -12 -2 -12 3 0 6 -4 11 -10 11 -6 0 -5 -10 2
-25 6 -14 16 -25 23 -25 16 0 39 -45 32 -63 -4 -10 3 -17 24 -21 16 -3 37 -15
46 -27 41 -50 54 -59 78 -55 15 3 25 0 26 -7 0 -7 2 -24 4 -39 2 -16 -1 -28
-6 -28 -5 0 -9 5 -9 10 0 6 -16 10 -36 10 -33 0 -35 -2 -34 -27 1 -16 1 -30 0
-33 -9 -24 -4 -56 12 -72 10 -10 18 -25 18 -33 0 -8 5 -15 10 -15 6 0 10 5 10
10 0 6 8 5 20 -2 22 -14 27 -33 6 -25 -9 4 -13 -4 -14 -23 0 -20 5 -30 19 -33
11 -3 19 -14 19 -26 0 -22 40 -71 59 -71 7 0 9 5 4 13 -4 6 -6 20 -4 30 1 12
-5 20 -18 24 -12 3 -21 13 -21 23 0 10 -7 23 -15 30 -12 10 -11 15 9 37 15 16
22 33 18 46 -5 20 -5 20 16 -1 12 -12 28 -22 35 -22 18 0 49 -38 34 -43 -7 -2
-5 -15 7 -41 10 -21 16 -49 13 -62 -2 -13 -1 -22 2 -20 14 9 38 -21 43 -52 6
-40 -11 -57 -38 -38 -15 12 -17 17 -6 27 20 21 14 27 -25 27 -33 1 -77 6 -93
12 -3 1 -24 1 -48 0 -31 -1 -42 2 -40 12 2 8 -5 12 -18 10 -13 -2 -24 4 -28
14 -9 22 0 30 18 15 10 -8 16 -9 21 -1 3 5 -1 10 -10 10 -9 0 -14 4 -10 9 10
17 -42 63 -63 57 -25 -8 -50 19 -27 28 9 3 13 2 10 -4 -3 -6 1 -10 9 -10 10 0
16 9 16 25 0 22 -3 24 -24 15 -22 -8 -26 -5 -35 20 -8 24 -7 31 7 39 15 8 15
10 2 15 -8 3 -26 6 -40 8 -20 2 -26 9 -28 36 -2 18 -8 30 -13 27 -5 -4 -9 2
-9 12 -1 19 -22 53 -34 53 -3 0 -6 -9 -6 -20 0 -11 5 -20 10 -20 13 0 13 -87
-1 -95 -6 -4 -12 -5 -14 -3 -10 10 -13 199 -4 257 12 80 2 95 -38 55 -16 -16
-35 -38 -43 -49 -8 -12 -42 -36 -75 -54 -60 -34 -213 -159 -229 -189 -18 -31
-248 -282 -284 -310 -47 -36 -220 -249 -305 -375 -18 -26 -58 -85 -89 -130
-31 -45 -73 -113 -92 -152 -20 -38 -42 -77 -49 -86 -13 -18 -339 -179 -361
-179 -7 0 -16 -3 -19 -6 -7 -7 -121 -48 -252 -90 -44 -15 -84 -29 -90 -33 -5
-4 -37 -15 -70 -25 -33 -10 -91 -31 -130 -46 -38 -15 -85 -31 -102 -35 -18 -3
-35 -11 -38 -16 -4 -5 -13 -9 -22 -9 -8 0 -29 -6 -46 -14 -87 -37 -184 -72
-342 -123 -44 -14 -84 -29 -90 -33 -5 -5 -53 -22 -105 -40 -52 -17 -108 -38
-125 -45 -16 -7 -61 -24 -100 -36 -38 -12 -74 -26 -79 -31 -6 -4 -16 -8 -22
-8 -7 0 -25 -5 -41 -11 -15 -7 -75 -29 -133 -49 -58 -21 -130 -48 -160 -60
-83 -33 -210 -80 -255 -95 -22 -7 -98 -34 -170 -60 -71 -26 -161 -58 -200 -71
-38 -14 -83 -31 -100 -38 -16 -8 -66 -26 -110 -41 -44 -15 -108 -40 -143 -56
-35 -16 -67 -29 -71 -29 -9 0 -75 -27 -159 -66 -29 -13 -55 -24 -59 -24 -8 0
-85 -36 -235 -111 -65 -31 -128 -61 -140 -65 -13 -4 -91 -39 -173 -79 -173
-84 -251 -117 -350 -150 -145 -48 -312 -129 -387 -187 -35 -27 -68 -77 -68
-102 0 -11 -90 -82 -184 -146 -68 -46 -246 -225 -288 -290 -293 -453 -440
-813 -518 -1280 -31 -182 -42 -219 -95 -335 -113 -245 -255 -613 -338 -875
-20 -63 -56 -176 -80 -250 -24 -74 -54 -173 -66 -220 -13 -47 -29 -105 -37
-130 -7 -25 -26 -101 -43 -170 -16 -69 -35 -139 -41 -155 -7 -17 -13 -39 -15
-50 -4 -25 -37 -146 -65 -240 -12 -38 -25 -86 -30 -106 -5 -20 -20 -67 -34
-105 -33 -95 -51 -157 -70 -239 -10 -38 -23 -90 -31 -115 -7 -25 -21 -81 -30
-125 -9 -44 -22 -102 -30 -130 -8 -27 -21 -95 -30 -150 -8 -55 -21 -122 -27
-150 -6 -27 -14 -167 -17 -310 -4 -180 -10 -267 -18 -282 -7 -12 -13 -32 -13
-45 0 -13 -7 -32 -15 -42 -8 -11 -15 -30 -15 -42 0 -31 -35 -177 -49 -202 -6
-11 -11 -38 -11 -60 0 -50 -28 -189 -45 -222 -7 -14 -16 -77 -20 -140 -5 -84
-12 -125 -27 -154 -26 -50 -35 -159 -43 -526 -5 -221 -11 -303 -25 -365 -10
-44 -21 -119 -25 -167 -4 -49 -11 -90 -16 -94 -5 -3 -9 -21 -9 -40 0 -20 -5
-45 -12 -57 -6 -12 -15 -62 -19 -111 -4 -48 -12 -93 -18 -99 -6 -6 -11 -25
-11 -43 0 -17 -7 -37 -15 -44 -8 -7 -15 -27 -15 -45 0 -18 -12 -68 -26 -111
-14 -43 -30 -112 -34 -153 -5 -41 -14 -79 -20 -85 -5 -5 -10 -19 -10 -31 0
-11 -7 -33 -15 -49 -8 -15 -15 -47 -15 -70 0 -24 -6 -62 -14 -87 -26 -83 -45
-194 -51 -303 -3 -60 -8 -113 -11 -118 -3 -5 -7 -53 -10 -106 -2 -53 -9 -119
-15 -147 -6 -27 -15 -86 -20 -130 -5 -44 -13 -93 -19 -109 -5 -16 -10 -39 -10
-52 0 -12 -4 -24 -10 -26 -5 -2 -14 -41 -19 -88 -9 -87 -17 -109 -61 -170 -31
-43 -39 -57 -85 -150 -20 -41 -50 -101 -66 -133 -16 -31 -29 -65 -29 -75 0 -9
-6 -29 -14 -44 -8 -15 -17 -40 -21 -57 -4 -17 -11 -31 -17 -31 -6 0 -9 -86 -6
-248 2 -211 1 -251 -13 -277 -9 -16 -24 -48 -34 -70 -9 -22 -21 -47 -26 -55
-5 -8 -12 -22 -15 -30 -17 -43 -42 -89 -65 -120 -15 -19 -29 -45 -33 -57 l-7
-23 2204 0 2205 0 34 53 c82 126 176 346 204 476 14 63 28 119 32 125 3 6 10
35 14 64 4 28 12 76 18 105 5 28 14 79 19 112 5 33 12 71 16 85 3 14 8 79 11
145 3 66 8 149 13 185 4 36 7 140 7 232 -1 93 3 168 7 168 5 0 6 8 3 18 -5 14
-7 85 -5 177 1 74 -11 354 -16 371 -4 13 -1 25 9 33 9 8 16 11 16 7 0 -3 9 3
20 14 11 11 20 25 20 30 0 6 7 10 15 10 8 0 15 -5 15 -11 0 -5 -5 -7 -12 -3
-8 5 -9 2 -5 -9 3 -10 2 -17 -3 -17 -6 0 -10 -9 -10 -20 0 -11 4 -20 8 -20 4
0 8 -9 9 -20 1 -11 -1 -20 -5 -20 -11 0 -34 17 -33 24 3 18 0 26 -9 26 -14 0
-13 -43 2 -58 17 -17 58 -15 58 3 0 20 19 19 27 -1 3 -9 13 -14 24 -11 19 5
29 -11 29 -46 0 -18 2 -19 10 -7 13 20 7 -104 -9 -179 -7 -34 -8 -58 -2 -65
15 -18 17 -99 3 -104 -7 -2 -12 -8 -12 -13 0 -6 4 -7 10 -4 6 3 10 -4 10 -17
0 -18 -2 -20 -10 -8 -8 12 -10 10 -10 -8 0 -13 4 -20 10 -17 6 4 10 -6 10 -22
0 -20 -3 -24 -9 -14 -6 9 -9 -8 -9 -45 -1 -98 -12 -327 -17 -354 -2 -14 -7
-91 -10 -172 -4 -82 -10 -172 -15 -200 -5 -29 -7 -179 -4 -333 9 -481 13 -566
31 -642 l5 -23 6739 0 6738 0 -6 68 c-6 69 8 217 30 327 10 50 16 61 35 63 12
2 35 -7 52 -20 39 -31 39 -71 -1 -188 -36 -110 -39 -152 -14 -207 l20 -42
1823 -1 1822 0 -6 128 c-5 127 -25 257 -44 291 -5 11 -12 43 -16 72 -9 84 18
143 161 342 44 62 54 97 66 237 11 124 32 258 54 330 7 25 20 69 29 99 29 98
21 162 -44 346 -67 192 -88 288 -119 560 -11 88 -27 196 -36 240 -9 44 -22
109 -30 145 -7 36 -37 162 -67 280 -54 210 -74 296 -137 590 -18 80 -38 174
-46 210 -7 36 -21 101 -30 145 -9 44 -23 105 -31 135 -7 30 -29 134 -49 230
-34 169 -68 327 -85 400 -37 157 -80 352 -91 414 -4 26 -12 62 -17 80 -6 17
-15 58 -22 91 -7 33 -39 168 -72 300 -66 262 -75 304 -113 505 -15 74 -30 153
-35 175 -38 175 -55 256 -91 440 -51 259 -122 584 -188 855 -28 113 -55 234
-60 270 -11 64 -38 206 -67 345 -8 39 -19 90 -23 115 -23 121 -72 345 -86 393
-9 30 -18 63 -20 73 -4 19 -53 199 -82 304 -8 30 -23 91 -33 135 -33 145 -113
433 -160 575 -25 74 -71 183 -173 405 -31 66 -61 140 -68 165 -7 25 -29 70
-49 100 -20 30 -56 90 -79 134 -23 43 -53 93 -66 111 -14 17 -25 36 -25 42 0
30 -146 192 -240 264 -41 32 -84 68 -95 79 -12 11 -25 20 -30 20 -6 0 -26 15
-45 33 -21 19 -44 31 -56 29 -13 -2 -43 15 -80 46 -79 65 -211 153 -349 232
-63 36 -153 89 -202 119 -98 59 -720 368 -798 396 -70 25 -123 49 -250 112
-201 101 -220 110 -290 137 -38 15 -89 36 -112 47 -24 10 -45 19 -48 19 -2 0
-42 22 -87 49 -111 65 -172 92 -496 221 -137 54 -189 81 -237 125 -73 67 -254
178 -324 200 -13 4 -45 19 -70 34 -25 15 -66 35 -91 45 -25 10 -59 25 -77 32
-17 8 -36 14 -43 14 -29 0 -122 38 -190 77 -41 24 -81 47 -89 51 -12 7 -113
233 -142 319 -10 32 -84 177 -120 238 -20 33 -73 127 -132 232 -40 73 -41 75
-104 173 -56 86 -179 245 -221 284 -19 17 -72 69 -118 115 -63 62 -88 81 -96
73 -8 -8 -8 -15 0 -25 7 -8 10 -16 8 -18 -2 -2 -7 -56 -10 -119 -4 -63 -11
-155 -15 -205 -4 -49 -9 -148 -10 -219 -1 -71 -5 -134 -9 -140 -3 -6 -8 -45
-9 -86 -1 -41 -3 -83 -3 -93 -1 -9 -5 -15 -10 -12 -5 3 -7 -12 -5 -32 4 -29 3
-32 -3 -13 -8 24 -8 24 -17 -10 -9 -39 -9 -37 -20 -98 -4 -25 -16 -49 -26 -55
-23 -15 -24 -26 -3 -42 13 -9 14 -16 6 -31 -9 -14 -12 -15 -12 -4 0 12 -4 10
-15 -4 -19 -25 -19 -36 0 -36 10 0 13 -9 10 -32 -2 -19 1 -36 8 -40 9 -6 9 -8
-1 -8 -7 0 -18 -12 -24 -27 -9 -24 -12 -25 -16 -9 -3 15 -6 16 -13 5 -6 -10
-9 -10 -9 -1 0 6 -4 12 -10 12 -6 0 -6 -9 0 -24 8 -21 6 -25 -13 -28 -13 -2
-23 -11 -24 -23 -2 -11 0 -14 3 -7 10 21 24 13 24 -13 0 -17 6 -25 17 -25 16
0 16 -1 1 -17 -14 -13 -20 -14 -32 -4 -13 11 -14 8 -12 -16 2 -15 -3 -35 -11
-43 -8 -8 -19 -23 -26 -32 -7 -9 -19 -18 -27 -20 -15 -3 -40 -59 -40 -90 0
-10 7 -18 15 -18 24 0 17 -36 -10 -48 -28 -13 -33 -32 -9 -32 19 0 9 -40 -13
-53 -7 -5 -11 -12 -8 -17 3 -5 -4 -11 -15 -15 -21 -7 -28 -35 -9 -35 15 0 -9
-30 -25 -30 -6 0 -20 -7 -30 -15 -15 -11 -16 -17 -7 -29 9 -11 8 -15 -4 -19
-8 -4 -12 -13 -9 -21 4 -10 -3 -20 -19 -27 -15 -7 -23 -17 -20 -25 4 -10 -3
-14 -22 -14 -23 0 -26 -2 -15 -15 11 -13 9 -15 -16 -14 -45 3 -54 0 -54 -16 0
-8 -4 -23 -9 -33 -5 -9 -13 -26 -17 -37 -6 -19 -7 -18 -13 5 -6 21 -8 22 -14
8 -3 -10 -14 -18 -23 -18 -9 0 -14 -6 -11 -13 8 -20 -7 -38 -31 -40 -17 -1
-21 -6 -16 -20 4 -13 2 -17 -5 -13 -7 5 -9 1 -5 -8 3 -9 1 -16 -5 -16 -6 0 -8
-7 -4 -16 5 -14 3 -15 -15 -5 -12 7 -22 16 -22 21 0 5 -7 7 -15 4 -8 -4 -12
-10 -9 -15 8 -13 -19 -36 -35 -31 -7 2 -17 -2 -22 -9 -12 -19 -11 -27 4 -32 6
-2 4 -3 -5 -2 -10 2 -18 -3 -18 -11 0 -8 -7 -14 -15 -14 -8 0 -15 -4 -15 -9 0
-5 -10 -11 -22 -13 -17 -2 -22 -9 -20 -22 3 -17 1 -18 -11 -7 -19 15 -30 0
-29 -40 0 -18 -4 -29 -13 -29 -21 0 -27 16 -10 30 7 6 11 18 8 27 -5 11 -15
14 -42 9 -20 -4 -58 -9 -86 -12 -57 -7 -62 -10 -67 -44 -3 -21 1 -24 30 -26
17 -1 32 2 32 6 0 10 54 -1 61 -13 4 -6 23 -6 53 1 53 11 60 0 15 -27 -24 -15
-38 -17 -67 -10 -21 4 -41 4 -46 -1 -5 -5 -15 -6 -22 -3 -8 3 -14 0 -14 -6 0
-6 -7 -8 -16 -4 -8 3 -13 12 -10 19 3 9 -2 14 -14 14 -16 0 -19 -5 -14 -29 5
-23 2 -30 -18 -36 -12 -4 -28 -8 -35 -9 -7 -1 -19 -10 -27 -21 -13 -17 -15
-18 -16 -3 0 9 -3 24 -7 34 -4 10 -2 15 3 11 15 -9 28 4 40 40 l12 31 -34 -19
c-19 -10 -40 -16 -48 -13 -8 3 -17 1 -21 -5 -8 -13 -48 -14 -61 -2 -5 6 -29
11 -54 13 -36 2 -45 7 -48 23 -2 12 0 16 5 9 11 -15 81 -25 88 -13 4 5 15 9
26 9 10 0 19 4 19 9 0 5 3 17 7 26 5 14 2 16 -15 11 -11 -4 -23 -2 -26 3 -9
14 -36 2 -36 -15 0 -8 -6 -11 -17 -7 -11 4 -14 3 -9 -5 4 -7 1 -12 -8 -12 -9
0 -16 4 -16 9 0 5 -20 4 -45 -1 -52 -11 -75 0 -75 35 0 16 -3 18 -12 9 -16
-16 -28 -15 -28 3 0 8 4 15 8 15 5 0 9 7 9 15 0 8 -7 15 -15 15 -9 0 -12 -3
-9 -7 4 -3 0 -17 -9 -31 -9 -14 -11 -21 -4 -17 8 5 11 3 8 -6 -3 -8 -11 -13
-17 -12 -6 2 -11 -6 -11 -17 0 -13 5 -18 15 -14 8 4 15 11 15 17 0 6 2 8 5 5
9 -8 -6 -38 -16 -32 -5 3 -9 -1 -9 -8 -1 -8 -9 -4 -19 10 -12 13 -25 20 -35
16 -12 -5 -15 -2 -10 9 3 9 12 13 20 10 8 -3 14 1 14 11 0 20 -9 20 -32 -1
-15 -14 -22 -14 -42 -3 -13 7 -30 9 -38 4 -7 -4 -5 2 6 14 10 12 27 24 38 28
18 5 18 7 2 18 -9 7 -28 12 -42 10 -17 -2 -26 3 -29 17 -6 23 -15 24 -59 3
-19 -9 -38 -13 -42 -9 -9 8 28 36 39 30 4 -3 11 -1 14 5 4 6 1 9 -6 8 -6 -2
-14 3 -17 11 -3 10 0 12 13 8 12 -5 18 -1 22 13 6 23 19 26 26 8 3 -8 6 -6 6
5 1 9 5 17 10 17 5 0 12 -8 14 -17 3 -13 5 -14 6 -3 2 19 52 43 64 31 6 -6 19
-4 33 6 13 8 28 12 34 8 13 -8 42 14 34 26 -7 11 -1 11 29 0 19 -8 27 -6 31 5
8 21 25 17 35 -8 5 -14 10 -17 15 -10 4 7 16 12 27 12 10 0 19 5 19 10 0 6 7
10 16 10 9 0 14 7 12 17 -4 20 -98 32 -98 13 0 -18 -26 12 -35 40 -7 22 -8 22
-18 4 -16 -29 -41 -51 -55 -46 -6 2 -12 -2 -12 -8 0 -7 -7 -10 -15 -7 -8 4
-17 2 -20 -3 -4 -6 -11 -10 -16 -10 -6 0 -8 4 -5 8 3 5 2 22 -3 38 -6 25 -12
29 -47 31 -67 3 -87 -4 -81 -33 2 -13 0 -27 -4 -30 -9 -5 -13 10 -9 36 1 8 11
27 22 43 16 22 23 25 34 16 8 -6 21 -8 31 -4 10 5 25 7 34 6 10 -1 19 8 23 21
9 34 7 43 -5 31 -9 -9 -17 -9 -33 0 -29 16 -37 30 -23 39 19 12 27 9 27 -11 0
-14 5 -18 20 -14 11 3 20 9 20 14 0 5 11 7 24 3 16 -4 25 -1 29 10 4 9 15 16
26 16 11 0 23 5 27 11 3 6 17 8 30 5 15 -4 24 -2 24 5 0 6 8 9 18 7 12 -3 24
2 31 14 10 16 24 18 127 17 63 0 118 1 121 4 15 15 -12 26 -51 21 -39 -6 -44
-4 -49 17 -3 13 -1 29 5 36 7 9 6 14 -6 19 -9 3 -13 10 -10 15 3 5 -4 9 -15 9
-12 0 -21 -7 -21 -15 0 -20 -10 -19 -26 3 -12 16 -13 16 -14 0 0 -9 -11 -25
-24 -36 -18 -14 -22 -22 -14 -30 8 -8 -2 -11 -40 -9 -29 1 -52 3 -52 5 0 2 4
12 10 22 7 14 6 23 -7 36 -13 13 -18 14 -22 3 -2 -7 1 -15 8 -17 6 -2 11 -9
11 -15 0 -6 -14 2 -30 18 -29 28 -31 28 -36 10 -3 -11 -16 -28 -30 -38 -21
-16 -24 -16 -24 -2 0 9 7 18 15 21 8 4 15 12 15 20 0 8 -7 14 -15 14 -8 0 -15
5 -15 11 0 5 -4 7 -10 4 -5 -3 -10 -17 -10 -31 0 -14 -7 -27 -15 -30 -8 -4
-15 -13 -15 -21 0 -8 -4 -11 -10 -8 -6 3 -16 3 -22 -2 -18 -11 -81 -33 -97
-33 -11 0 -11 3 -1 15 9 10 9 15 1 15 -24 0 -9 18 29 33 22 8 40 21 40 29 0
10 -2 10 -9 -1 -6 -8 -14 -10 -22 -5 -8 5 -24 7 -36 6 -11 -2 -24 2 -28 8 -9
15 -25 2 -19 -15 5 -11 -2 -14 -28 -13 -18 0 -43 -2 -56 -6 -14 -5 -29 -3 -37
4 -8 6 -19 9 -25 5 -13 -8 -13 -35 1 -35 6 0 9 7 5 15 -3 8 -1 15 4 15 6 0 10
-9 10 -20 0 -13 -7 -20 -20 -20 -11 0 -20 -5 -20 -11 0 -5 5 -7 10 -4 6 3 10
-1 10 -9 0 -9 -3 -15 -7 -14 -5 1 -21 -4 -37 -11 -16 -6 -32 -8 -35 -3 -8 12
-52 9 -79 -6 -13 -7 -33 -12 -44 -10 -25 3 -37 28 -15 28 9 0 17 -5 19 -12 3
-7 13 -3 28 12 18 18 33 23 61 21 40 -3 57 12 40 33 -6 7 -13 29 -15 49 -4 32
-2 37 16 37 14 0 18 -5 14 -15 -8 -23 7 -18 23 7 10 16 10 23 2 26 -6 2 -11
10 -11 18 0 8 -4 14 -9 14 -5 0 -16 3 -25 6 -24 9 -19 -10 6 -21 33 -15 37
-38 4 -25 -20 7 -27 6 -34 -7 -6 -10 -14 -13 -22 -8 -10 6 -9 11 5 21 15 11
14 13 -14 12 -24 -1 -31 -6 -31 -21 0 -26 -10 -16 -15 16 -4 21 -2 24 15 20
11 -3 20 0 20 6 0 6 -9 11 -20 11 -17 0 -18 3 -9 18 18 28 58 54 71 45 9 -5 5
-9 -12 -14 -20 -6 -17 -7 18 -8 36 -1 42 2 42 19 0 13 -7 20 -19 20 -11 0 -23
5 -26 10 -4 6 -12 7 -18 3 -20 -12 -97 -15 -97 -4 0 6 12 11 28 12 28 0 77 17
55 18 -7 1 -13 12 -13 26 0 30 -26 34 -46 8 -8 -11 -13 -13 -14 -5 0 17 -20
15 -20 -2 0 -20 -17 -29 -51 -28 -20 0 -30 -5 -35 -21 -6 -19 -7 -20 -19 -3
-10 14 -21 16 -52 10 -21 -3 -44 -11 -51 -17 -9 -7 -16 -7 -24 1 -15 15 -32
16 -23 2 3 -6 0 -10 -8 -10 -18 0 -42 28 -33 37 4 4 11 1 16 -7 8 -13 10 -13
10 1 0 9 -7 19 -15 23 -34 13 5 75 48 76 23 0 22 17 -2 29 -20 11 -32 3 -44
-31 -7 -19 -37 -25 -37 -8 0 5 -7 7 -15 4 -8 -4 -13 -10 -10 -14 7 -12 -69
-19 -77 -7 -4 6 -13 4 -23 -6 -9 -10 -21 -17 -28 -17 -6 0 -2 6 9 14 10 8 17
16 14 18 -3 3 -19 14 -36 26 l-31 21 -39 -19 c-53 -27 -64 -25 -64 10 0 20 5
30 15 30 24 0 17 16 -12 29 -32 15 -52 0 -55 -42 -2 -28 -6 -31 -32 -21 -11 4
-14 13 -10 29 4 16 0 26 -13 34 -14 9 -12 9 15 5 20 -4 32 -2 32 4 0 17 -89
27 -103 12 -9 -10 -9 -11 0 -6 15 8 55 -33 51 -54 -2 -8 -11 -15 -20 -15 -9 0
-19 -3 -23 -6 -3 -4 -25 -2 -47 3 -31 7 -44 6 -51 -4 -6 -9 -7 -8 -3 5 7 21
-30 58 -50 50 -7 -2 -15 0 -19 6 -3 6 -1 11 4 11 6 0 11 5 11 10 0 10 -13 12
-104 10 -26 -1 -58 5 -70 13 -12 8 -40 13 -64 12 -33 -2 -42 1 -38 11 4 10 -3
14 -19 14 -31 0 -31 -3 0 -36 14 -15 25 -35 25 -44 0 -29 23 -41 58 -30 22 6
32 5 32 -2 0 -6 3 -9 6 -5 4 3 19 0 34 -8 23 -12 30 -12 48 1 12 8 19 21 16
29 -4 8 -1 15 7 15 7 0 10 -3 6 -6 -3 -4 5 -21 18 -39 31 -40 31 -45 0 -45
-14 0 -25 5 -25 10 0 6 -4 10 -10 10 -5 0 -10 -6 -10 -14 0 -21 -50 -7 -59 17
-6 15 -10 17 -15 8 -5 -7 -6 -15 -2 -18 8 -8 -21 -33 -39 -33 -9 0 -15 6 -12
13 2 6 12 11 21 11 20 -2 21 10 2 25 -10 8 -16 9 -21 1 -3 -5 -17 -10 -30 -10
-18 0 -25 7 -30 29 -5 25 -11 29 -35 29 -26 -1 -27 -3 -17 -25 7 -16 16 -22
29 -17 19 6 25 -10 8 -21 -5 -3 -7 -13 -4 -23 4 -13 1 -11 -14 5 l-20 22 -7
-22 c-6 -19 -8 -20 -12 -4 -3 12 -11 16 -23 12 -10 -3 -21 -1 -25 5 -3 6 -11
8 -16 5 -5 -4 -9 -1 -9 4 0 14 53 14 67 0 8 -8 13 -7 19 2 4 7 3 14 -4 17 -7
2 -9 8 -6 13 3 6 0 16 -6 24 -12 14 -10 42 5 77 5 13 0 20 -19 28 -14 5 -26
14 -26 19 0 5 -9 9 -20 8 -11 -1 -20 -5 -20 -9 0 -4 -6 -8 -14 -8 -16 0 -15
45 2 75 10 19 11 19 20 -4 6 -17 18 -25 41 -27 31 -4 77 -24 111 -50 8 -6 31
-14 50 -18 29 -5 38 -3 52 16 14 19 18 20 18 6 0 -9 -5 -20 -10 -23 -18 -11 0
-25 31 -25 20 0 29 5 29 16 0 13 -3 14 -13 5 -8 -6 -17 -8 -20 -4 -14 13 27
32 47 21 13 -7 21 -6 27 3 13 21 11 28 -8 28 -41 0 -95 10 -107 20 -10 9 -13
6 -11 -14 4 -32 -18 -33 -35 0 -7 13 -22 28 -34 31 -20 6 -20 7 3 25 13 11 29
19 37 19 8 0 14 5 14 10 0 12 -13 12 -62 1 -46 -11 -70 4 -62 36 3 12 13 23
21 25 11 2 10 8 -7 26 -28 29 -19 56 15 50 23 -5 29 0 23 19 -2 5 -9 7 -15 5
-22 -5 -14 8 10 17 13 5 27 5 35 -1 6 -6 12 -7 12 -4 0 4 12 -1 28 -12 15 -10
37 -21 50 -25 19 -4 22 -1 22 24 0 34 -20 40 -21 7 -1 -21 -2 -20 -11 4 -8 25
-6 31 21 54 17 14 28 30 25 35 -3 6 -11 5 -20 -2 -8 -6 -14 -7 -14 -2 0 5 9
15 20 23 11 8 20 20 20 26 0 6 22 14 49 18 28 4 55 14 65 25 20 22 42 18 81
-15 18 -16 41 -24 64 -24 24 0 32 -3 22 -9 -7 -5 -10 -14 -7 -20 4 -6 11 -9
16 -6 5 3 11 1 15 -5 4 -6 10 -8 15 -5 5 3 21 -12 36 -35 15 -22 31 -40 36
-40 5 0 6 -4 3 -10 -5 -8 -41 17 -84 61 -9 9 -32 20 -51 23 -19 4 -46 12 -59
19 -19 10 -25 8 -37 -8 -8 -10 -14 -13 -14 -7 0 7 -4 12 -10 12 -5 0 -10 -6
-10 -14 0 -17 -68 -31 -102 -21 -18 5 -20 4 -8 -4 11 -8 12 -11 2 -11 -7 0
-10 -5 -7 -10 4 -6 2 -17 -4 -24 -8 -10 -7 -23 4 -49 14 -33 17 -36 40 -27 23
9 27 6 24 -16 -1 -12 26 -24 44 -18 9 3 17 1 17 -5 0 -14 29 -18 68 -10 22 5
32 3 32 -5 0 -6 9 -18 19 -26 11 -7 18 -16 16 -19 -2 -3 19 -4 46 -3 44 4 49
2 49 -16 0 -24 -16 -38 -22 -20 -5 15 -98 19 -98 4 -1 -6 -10 0 -20 13 -16 19
-33 24 -85 29 -56 4 -65 2 -65 -12 0 -9 7 -16 15 -16 8 0 15 -5 15 -10 0 -6
11 -8 25 -4 14 3 33 3 42 -1 14 -5 9 -10 -22 -21 -22 -7 -48 -14 -57 -14 -10
0 -18 -5 -18 -10 0 -6 3 -9 8 -8 14 5 72 -27 72 -39 0 -7 5 -13 10 -13 6 0 10
9 10 19 0 11 5 23 10 26 6 3 10 -3 10 -14 0 -15 6 -21 23 -21 13 0 27 -4 32
-9 6 -4 24 -11 42 -14 26 -5 31 -3 26 8 -3 8 0 15 6 15 6 0 11 -11 11 -25 0
-19 5 -25 23 -25 13 0 29 -6 36 -12 11 -11 13 -10 8 5 -7 18 -9 18 102 22 43
2 55 -1 58 -14 2 -10 14 -23 26 -30 18 -12 23 -11 38 7 9 12 19 19 22 16 3 -3
15 -1 26 6 17 8 21 8 21 -4 0 -7 6 -16 13 -19 9 -3 13 3 13 17 -1 16 6 22 28
24 22 3 27 0 23 -11 -5 -13 7 -15 74 -13 43 1 79 -2 79 -7 0 -5 6 -5 13 2 10
7 17 7 24 0 6 -6 17 -8 23 -4 9 6 9 10 -1 16 -11 7 -9 9 6 9 38 0 -1 21 -43
23 -23 1 -42 4 -42 8 0 11 38 21 49 14 5 -3 12 -1 16 5 3 5 20 7 38 3 18 -3
56 -6 85 -7 28 0 52 -4 52 -8 0 -18 70 -7 97 15 34 28 123 36 142 13 10 -11 8
-17 -6 -25 -23 -14 -8 -14 18 -1 15 8 19 7 19 -5 0 -8 5 -15 10 -15 21 0 9 32
-21 57 -30 26 -55 33 -111 33 -29 0 -46 16 -31 31 6 6 20 5 39 -2 36 -15 105
-18 121 -6 6 4 46 8 87 9 59 0 76 3 76 14 0 8 10 19 23 23 22 9 22 9 -6 16
-21 6 -25 10 -17 20 13 16 59 25 66 14 3 -5 -1 -9 -8 -9 -8 -1 -6 -6 6 -15 15
-11 23 -12 33 -3 11 9 21 8 42 -5 15 -9 50 -19 78 -23 30 -3 54 -12 57 -20 3
-8 0 -15 -7 -15 -7 -1 -19 -2 -27 -3 -8 0 -15 -7 -15 -14 0 -7 -4 -16 -10 -20
-27 -19 -11 -28 41 -22 56 6 75 -3 26 -13 -23 -5 -28 -11 -26 -29 1 -13 3 -26
3 -30 2 -13 31 -9 31 4 0 6 3 8 6 5 4 -3 17 2 30 12 16 13 36 17 65 15 51 -3
54 -6 37 -41 -9 -20 -23 -29 -45 -33 l-32 -5 24 -21 24 -21 33 28 c18 15 40
28 49 29 8 0 24 7 35 16 18 15 18 15 -3 9 -13 -4 -32 -3 -43 0 -19 6 -18 9 17
41 41 37 56 39 61 6 2 -14 11 -22 22 -22 13 0 17 -5 13 -20 -3 -11 0 -20 6
-20 6 0 11 -8 11 -17 0 -13 7 -10 29 13 25 25 29 37 27 72 -2 22 -9 48 -16 57
-7 8 -10 15 -6 15 4 0 -2 12 -11 27 -10 15 -13 25 -8 22 62 -31 64 -32 93 -20
16 7 41 9 57 5 17 -4 30 -2 34 5 4 7 25 13 47 14 33 2 40 7 42 27 8 53 62 78
96 45 20 -21 47 -19 53 4 3 11 18 24 34 30 16 5 29 17 29 25 0 17 25 22 35 6
4 -6 15 -5 30 2 61 28 18 80 -48 59 -28 -10 -87 -67 -112 -109 -1 -1 -17 1
-35 4 -20 4 -35 14 -37 26 -6 21 -8 21 -33 8 -10 -5 -21 -21 -24 -35 -4 -14
-11 -25 -17 -25 -6 0 -7 5 -3 12 5 8 0 9 -14 6 -29 -8 -38 9 -18 31 18 19 22
46 6 36 -6 -3 -13 1 -16 9 -10 26 -24 18 -24 -13 0 -16 -6 -34 -14 -41 -8 -6
-13 -17 -10 -24 3 -7 -6 -12 -22 -14 -35 -3 -37 -6 -37 -42 0 -18 -6 -30 -14
-30 -7 0 -13 7 -13 15 0 8 -7 15 -15 15 -8 0 -15 7 -15 15 0 8 7 15 15 15 8 0
15 7 15 15 0 8 6 24 13 36 10 17 9 22 -7 35 -11 8 -14 14 -8 14 7 0 31 12 55
27 23 15 60 36 82 46 22 10 54 29 72 43 17 13 35 24 39 24 3 0 24 16 45 35 22
19 45 35 53 35 7 0 19 7 26 15 16 20 30 19 30 -2 0 -14 2 -14 20 2 24 21 26
40 5 31 -9 -3 -15 0 -15 9 0 9 10 15 25 15 23 0 26 4 24 28 0 4 -7 6 -15 4 -8
-2 -14 1 -14 6 0 17 12 21 37 11 37 -14 103 0 103 21 0 21 23 32 46 23 11 -4
14 -13 10 -29 -8 -31 -4 -30 46 6 22 17 46 30 52 30 6 0 20 8 31 16 19 15 19
15 -10 8 -16 -4 -32 -10 -35 -14 -8 -11 -70 -18 -76 -8 -3 5 13 16 35 26 42
17 53 32 26 32 -9 0 -18 6 -21 13 -3 9 -22 14 -49 14 -43 0 -59 -10 -32 -20 7
-4 6 -6 -4 -6 -10 -1 -19 -13 -22 -29 -5 -27 -9 -28 -99 -40 -151 -19 -146
-19 -141 -5 3 7 13 13 22 14 9 0 3 5 -13 9 -28 9 -74 -9 -61 -22 3 -3 -5 -12
-19 -21 -22 -15 -25 -15 -30 0 -14 36 106 91 139 63 8 -7 21 -7 39 0 14 5 32
7 39 4 13 -5 87 61 87 78 0 16 -21 7 -49 -21 -25 -26 -34 -28 -92 -27 -62 1
-89 18 -39 24 47 6 57 13 32 23 -24 9 -22 29 3 29 27 0 83 41 89 64 3 13 3 38
0 55 -6 27 -1 36 35 72 23 23 39 44 37 47 -3 3 2 17 11 32 19 34 11 69 -12 50
-12 -10 -16 -8 -24 11 -7 19 -4 26 13 36 30 18 39 16 33 -7 -9 -35 23 -23 39
15 8 19 20 35 28 35 8 0 16 6 19 13 3 8 27 28 53 45 26 18 40 32 31 32 -21 0
-21 4 1 38 26 41 52 65 52 48 0 -17 48 -10 71 11 17 14 15 58 -2 47 -13 -7
-12 -3 10 42 21 43 51 75 51 55 0 -19 32 -12 37 8 3 10 20 27 39 37 39 21 40
23 18 39 -14 10 -15 14 -3 34 17 27 50 24 64 -6 20 -47 53 -11 58 62 2 35 -1
40 -20 43 -22 3 -22 4 -7 28 9 13 20 24 25 24 7 0 49 41 107 105 12 14 22 32
22 39 0 8 6 19 14 25 7 6 16 29 20 52 4 25 11 39 19 37 17 -4 137 112 137 132
1 29 57 157 86 195 28 37 84 181 84 216 0 10 8 24 18 31 27 19 47 60 87 178
57 165 67 202 72 255 6 63 16 75 63 75 21 0 69 7 108 16 55 12 80 24 110 52
50 46 60 66 68 134 4 38 2 63 -8 84 -8 16 -13 37 -11 46 3 12 0 16 -10 12 -9
-3 -19 6 -27 25 -14 36 -30 41 -30 10 0 -12 -5 -19 -12 -17 -7 3 -13 11 -13
19 0 8 -8 13 -18 11 -13 -2 -17 4 -17 27 0 16 -5 31 -12 33 -6 2 -13 17 -14
34 -1 16 -5 54 -9 84 l-7 55 19 -35 c13 -23 16 -39 10 -48 -7 -8 -1 -28 16
-62 17 -33 22 -50 14 -53 -7 -2 -8 -8 -4 -13 4 -4 16 -3 25 2 20 13 62 -9 62
-33 0 -8 5 -11 10 -8 18 11 11 45 -9 45 -14 0 -20 9 -24 38 -8 70 29 97 48 34
11 -39 18 -40 43 -4 21 30 132 211 132 216 0 2 35 61 78 132 67 112 110 194
167 319 8 17 28 71 44 120 17 50 42 121 56 158 14 37 25 78 25 90 0 12 6 40
14 62 7 22 22 90 31 152 19 119 17 147 -20 293 -9 36 -20 94 -26 130 -5 36
-14 74 -19 85 -5 11 -11 41 -15 67 -3 26 -10 50 -15 53 -4 3 -11 24 -15 48 -9
63 -65 197 -98 237 -46 57 -163 110 -241 110 -40 0 -47 3 -42 16 3 8 2 24 -4
34 -7 13 -4 25 12 45 17 22 27 26 49 21 24 -4 29 -2 29 14 0 11 -9 24 -20 30
-15 8 -19 17 -14 35 4 15 2 25 -5 25 -6 0 -11 6 -11 14 0 9 10 13 31 12 20 -2
33 4 40 15 17 32 10 49 -27 64 -46 19 -40 36 19 55 26 8 47 19 47 24 0 6 -10
20 -22 33 l-21 23 27 0 c16 0 29 -7 33 -17 7 -21 22 -33 40 -33 9 0 10 7 3 26
-6 14 -8 29 -5 34 8 12 -17 28 -50 32 -43 4 -48 38 -6 38 36 0 37 2 15 35 -20
31 -11 49 17 34 42 -22 67 16 31 47 -17 14 -17 21 -7 62 7 25 17 48 24 50 9 3
9 8 -1 19 -11 13 -9 18 10 31 27 18 28 28 2 35 -21 5 -29 29 -9 25 6 -2 14 3
16 10 4 9 -5 11 -37 6 -40 -7 -42 -6 -38 17 2 18 9 24 28 24 20 0 24 4 22 23
-2 14 4 29 13 36 15 10 15 16 6 35 -7 12 -23 26 -37 31 -23 9 -34 40 -14 40 6
0 10 -4 10 -9 0 -15 32 -22 46 -10 10 8 11 16 4 29 -15 28 -12 37 11 43 16 4
20 11 16 26 -4 16 1 21 22 23 28 3 30 17 12 88 -5 19 -15 62 -22 95 -7 33 -19
66 -28 73 -13 11 -14 16 -2 34 17 27 24 253 9 282 -20 38 -34 262 -17 292 6
12 9 30 6 38 -3 8 -2 18 3 21 6 4 10 21 10 38 1 18 7 43 15 57 20 35 22 638 2
678 -8 15 -21 42 -30 60 -9 19 -17 44 -17 56 0 12 -7 31 -15 42 -8 10 -15 28
-15 40 0 11 -4 24 -9 30 -18 18 -51 129 -51 169 0 23 -7 66 -16 95 -9 30 -17
79 -18 110 -1 53 0 56 29 70 27 14 30 19 29 60 -1 47 -20 105 -41 128 -7 7
-13 29 -13 48 0 19 -13 59 -30 91 -16 31 -30 64 -30 75 0 10 -6 29 -14 41 -8
12 -19 50 -25 85 -5 35 -19 78 -31 96 -11 19 -20 45 -20 59 0 14 -4 28 -9 31
-5 3 -12 17 -15 30 -3 13 -24 44 -46 67 -22 24 -40 48 -40 55 0 6 -7 17 -16
24 -10 9 -14 24 -10 49 5 37 -7 70 -30 84 -8 4 -14 14 -14 22 0 25 -91 168
-136 215 -24 25 -44 50 -44 56 0 6 -13 23 -30 39 -16 15 -32 41 -35 56 -4 16
-10 29 -15 29 -4 0 -15 19 -25 43 -21 53 -43 77 -63 70 -13 -5 -14 0 -9 30 5
30 1 40 -24 66 -16 17 -32 31 -35 31 -12 0 -89 74 -121 116 -18 24 -33 54 -33
68 0 14 -5 26 -10 26 -6 0 -28 12 -50 26 -34 23 -62 66 -64 101 -2 17 -46 53
-66 53 -10 0 -23 7 -30 15 -7 8 -18 15 -24 15 -20 0 -84 36 -120 68 -25 22
-33 36 -29 51 3 14 0 23 -12 27 -9 4 -29 18 -44 32 -14 13 -39 31 -56 38 -16
8 -37 18 -45 23 -52 29 -78 40 -83 34 -8 -8 -27 42 -27 72 0 17 -12 32 -37 50
-34 23 -47 25 -139 25 -62 0 -104 4 -106 10 -2 8 -26 7 -77 0 -53 -9 -76 -9
-84 -1 -14 14 -131 15 -122 1 4 -6 -7 -10 -25 -10 -35 0 -69 -15 -87 -39 -7
-9 -13 -12 -13 -8 0 16 -62 -28 -71 -50 -10 -26 -37 -31 -45 -8 -5 13 -10 12
-37 -2 -34 -17 -83 -50 -104 -70 -8 -7 -34 -29 -58 -49 -25 -20 -45 -42 -45
-50 0 -13 -37 -44 -52 -44 -11 0 -10 38 2 45 5 3 7 12 4 19 -3 8 -1 17 5 21
14 8 14 35 1 35 -6 0 -26 -22 -45 -49 -34 -47 -57 -62 -82 -54 -7 3 -13 13
-13 24 0 11 -7 22 -15 25 -8 4 -15 15 -15 25 0 10 -4 19 -8 19 -11 0 -12 8
-18 100 -3 41 -8 82 -11 90 -3 8 -5 19 -4 24 9 38 -115 194 -167 210 -12 4
-24 15 -27 26 -3 10 -17 26 -31 35 -25 16 -25 16 -15 -4 14 -26 14 -31 -3 -31
-17 0 -94 83 -106 115 -5 14 -13 25 -18 25 -5 0 -17 15 -27 33 -11 22 -43 48
-94 78 -93 56 -184 99 -207 99 -16 0 -15 -3 4 -20z m85 -80 c21 -25 21 -30 2
-30 -9 0 -12 -6 -9 -15 4 -8 12 -15 19 -15 22 0 95 -72 95 -93 0 -10 14 -37
31 -58 35 -45 33 -79 -6 -79 -21 0 -114 64 -130 90 -3 5 -14 10 -23 10 -10 0
-23 9 -30 20 -7 11 -19 20 -26 20 -8 0 -22 7 -30 15 -11 11 -21 13 -33 7 -20
-10 -40 -6 -63 13 -15 13 -85 26 -154 29 -22 1 -41 7 -43 13 -3 7 -20 15 -39
19 -48 9 -37 28 18 32 31 2 49 -2 58 -13 13 -16 35 -21 26 -6 -12 18 33 18 53
0 24 -23 28 -23 47 -5 21 21 17 36 -8 36 -19 0 -20 2 -8 10 23 15 47 12 66 -7
18 -18 60 -19 81 -1 8 7 19 5 35 -6 25 -18 48 -21 48 -6 0 6 -6 10 -14 10 -7
0 -19 7 -26 15 -11 13 -8 15 17 15 16 0 36 -9 46 -20z m-2415 -3269 c74 -37
106 -51 118 -51 8 0 14 -5 14 -10 0 -7 6 -7 18 -1 9 5 25 12 34 15 11 3 15 11
12 21 -3 8 -1 15 5 15 6 0 11 -11 11 -25 0 -20 6 -25 35 -31 19 -3 38 -11 41
-16 9 -15 -27 -48 -53 -48 -13 0 -34 -7 -48 -16 -23 -15 -23 -14 -18 7 4 15 3
20 -5 15 -18 -11 -14 -31 8 -51 18 -16 22 -16 38 -3 19 17 130 58 156 58 9 0
16 -8 17 -17 0 -10 3 -13 5 -7 3 7 23 8 59 3 57 -8 132 10 128 30 -2 6 2 11 7
11 20 0 10 -47 -12 -59 -13 -6 -34 -18 -48 -26 -25 -15 -25 -15 -2 -15 12 0
22 -5 22 -11 0 -6 -7 -9 -15 -5 -8 3 -15 1 -15 -4 0 -6 -7 -10 -15 -10 -9 0
-12 6 -9 15 8 19 -15 19 -40 0 -11 -9 -29 -12 -43 -9 -18 5 -25 2 -29 -13 -6
-23 -55 -38 -184 -57 -100 -14 -138 -14 -158 -2 -7 4 -16 5 -22 1 -5 -3 -17
-2 -27 3 -99 50 -133 63 -142 58 -38 -24 21 -176 95 -244 57 -51 72 -47 22 6
-31 32 -52 69 -48 81 1 2 -2 7 -7 10 -13 8 -43 71 -43 88 0 17 14 17 48 -1 40
-21 184 -34 287 -26 69 4 101 12 135 31 44 24 63 27 108 13 14 -4 22 -2 22 6
0 7 6 10 14 7 14 -6 117 31 169 59 16 9 31 14 34 11 2 -3 13 3 24 14 23 23 39
25 39 4 0 -8 5 -15 10 -15 6 0 8 11 4 25 -5 19 -2 25 10 25 9 0 19 -8 22 -17
3 -10 10 -26 15 -35 5 -10 9 -33 9 -52 0 -30 -3 -33 -21 -29 -15 4 -20 2 -18
-6 3 -7 9 -11 14 -9 15 5 24 -61 12 -93 -9 -22 -9 -34 0 -48 15 -24 26 -122
16 -136 -9 -11 -99 -55 -113 -55 -18 0 -10 19 17 45 32 29 29 31 -20 10 -26
-11 -35 -19 -30 -31 4 -10 1 -15 -8 -13 -20 3 -112 -12 -124 -21 -19 -14 -143
-19 -205 -9 -34 5 -81 17 -103 25 -23 9 -51 16 -62 17 -11 0 -49 18 -84 39
-62 37 -81 45 -81 31 0 -10 32 -43 42 -43 4 0 36 -13 70 -28 35 -16 77 -34 93
-41 62 -26 164 -38 302 -35 145 3 162 5 253 30 63 18 116 16 112 -4 -1 -7 2
-21 8 -32 7 -13 6 -20 -3 -23 -7 -3 -5 -6 6 -6 10 -1 34 -8 54 -16 30 -13 33
-17 23 -30 -7 -8 -23 -15 -36 -15 -13 0 -24 -5 -24 -11 0 -7 13 -9 38 -5 46 8
73 9 79 2 11 -10 -9 -44 -30 -51 -20 -6 -19 -8 11 -15 39 -9 45 -14 49 -40 3
-24 -6 -29 -54 -34 -21 -2 -56 -11 -79 -19 -42 -15 -158 -30 -254 -31 -48 -1
-55 -3 -52 -19 3 -15 -1 -17 -16 -13 -13 5 -22 1 -26 -11 -4 -10 -4 -14 0 -10
4 4 13 2 20 -4 18 -15 64 -3 64 16 0 8 4 15 10 15 5 0 7 -7 4 -15 -4 -8 -1
-15 5 -15 6 0 11 4 11 9 0 5 9 7 19 4 10 -3 30 2 42 10 13 8 65 20 114 26 50
6 100 13 113 17 17 5 21 3 16 -9 -4 -12 -1 -14 14 -10 24 6 40 -16 21 -28 -8
-5 -23 -9 -35 -9 -11 0 -21 -6 -21 -14 0 -8 6 -12 12 -10 7 3 25 6 41 8 16 2
32 4 37 5 4 0 7 8 7 16 0 8 8 15 18 15 21 0 44 -14 43 -26 -1 -18 64 -2 81 19
13 16 18 18 18 7 0 -8 16 -31 35 -50 34 -33 46 -70 24 -70 -5 0 -7 -5 -3 -11
3 -6 14 -9 24 -6 13 3 17 0 13 -9 -3 -8 0 -14 6 -14 6 0 11 6 11 14 0 20 61
50 71 35 4 -7 13 -4 27 11 19 21 41 13 27 -10 -9 -14 1 -13 34 5 26 13 30 13
41 0 7 -8 24 -15 39 -14 25 0 25 1 5 9 -12 5 -25 13 -29 19 -3 6 -22 11 -41
11 -36 0 -43 10 -19 30 8 7 12 16 9 21 -3 5 6 9 20 9 14 0 31 8 38 18 23 32
39 35 21 4 -9 -16 -26 -33 -37 -38 -27 -12 -32 -34 -8 -34 11 0 22 9 25 20 3
14 14 20 31 20 14 0 26 5 26 12 0 9 3 9 11 1 14 -14 87 11 106 36 11 14 12 14
13 -4 1 -20 1 -20 15 -1 8 11 15 28 15 39 0 14 5 17 22 11 20 -6 21 -5 10 9
-11 13 -10 15 7 10 12 -3 21 -1 21 6 0 5 7 8 15 5 10 -4 15 0 15 14 0 11 6 22
13 25 21 7 0 19 -22 12 -13 -4 -19 -11 -15 -18 4 -7 3 -8 -2 -4 -16 15 -11 77
6 77 13 0 13 2 1 9 -12 8 -9 11 13 17 24 6 27 10 20 33 -4 14 -6 43 -5 65 1
24 -4 45 -15 57 -9 10 -13 22 -10 27 8 14 53 21 65 9 6 -6 13 -2 20 12 15 26
61 29 62 4 0 -15 2 -15 9 2 7 16 9 17 9 3 1 -9 7 -19 14 -21 7 -3 5 -6 -5 -6
-11 -1 -15 -6 -12 -16 4 -8 1 -15 -5 -15 -6 0 -8 -7 -5 -14 4 -11 14 -6 40 20
19 18 39 34 45 34 6 0 9 7 5 15 -6 16 3 19 28 9 10 -4 16 -18 16 -36 0 -17 -4
-27 -10 -23 -5 3 -10 2 -10 -4 0 -5 -3 -16 -6 -25 -11 -27 21 -18 38 12 18 31
13 82 -8 82 -8 0 -14 5 -14 11 0 13 37 2 72 -22 24 -18 26 -18 22 -2 -4 15 2
18 30 18 19 0 38 -3 42 -7 13 -13 24 -9 24 10 0 13 2 14 9 3 5 -7 7 -23 4 -35
-4 -21 -4 -21 13 2 17 23 44 30 44 12 0 -6 8 -10 18 -8 11 2 18 -4 20 -19 3
-20 10 -23 45 -24 23 -1 45 -1 50 0 4 0 7 -8 7 -19 0 -15 6 -19 25 -18 39 4
39 26 -1 37 -54 15 -116 91 -73 91 5 0 9 -9 9 -20 0 -15 7 -20 28 -20 15 0 37
-7 49 -15 12 -8 28 -12 37 -9 9 3 16 1 16 -5 0 -6 7 -8 15 -5 23 9 18 21 -10
28 -14 4 -23 11 -20 16 3 6 -4 10 -17 10 -22 1 -22 1 -4 12 16 9 22 6 36 -12
16 -22 19 -22 34 -8 9 9 16 21 16 27 0 6 5 11 10 11 6 0 10 6 10 14 0 15 22
37 42 40 7 1 19 5 26 10 8 5 18 4 24 -2 6 -6 24 -6 46 -1 20 4 39 5 42 0 3 -4
29 -7 57 -7 57 1 59 0 39 -26 -14 -19 -42 -26 -31 -8 10 16 -41 12 -55 -4 -6
-8 -18 -12 -26 -9 -8 3 -14 0 -14 -6 0 -6 7 -11 16 -11 8 0 12 -5 9 -10 -4 -6
-16 -8 -28 -4 -18 6 -19 5 -6 -8 8 -8 21 -15 29 -15 8 0 23 -4 33 -8 10 -4 17
-3 17 4 0 6 5 11 11 11 8 0 8 -4 2 -12 -14 -18 -23 -59 -11 -52 17 11 56 -6
61 -27 3 -12 10 -18 15 -15 17 10 80 -23 88 -46 4 -13 7 -26 6 -30 -1 -5 3 -8
8 -8 6 0 13 13 16 29 4 17 13 32 21 35 8 4 13 13 9 21 -3 8 0 14 6 12 7 -1 14
12 18 28 3 19 8 26 13 18 6 -9 15 -9 33 -3 31 12 34 12 34 1 0 -5 -9 -13 -20
-16 -26 -8 -26 -29 0 -22 11 3 23 1 26 -5 4 -7 9 -7 13 1 9 13 53 2 48 -13 -2
-6 -16 -12 -31 -13 -16 -1 -36 -8 -45 -16 -9 -8 -24 -17 -34 -20 -10 -4 -15
-11 -12 -17 3 -5 0 -10 -8 -10 -10 0 -13 -7 -10 -20 6 -21 19 -27 25 -10 2 7
14 7 35 1 34 -10 59 4 29 15 -21 8 -13 20 36 50 41 26 68 26 68 0 0 -8 4 -17
9 -21 6 -3 8 5 5 18 -3 21 0 24 28 25 25 1 29 -2 18 -9 -11 -8 -12 -12 -2 -16
6 -2 12 -13 12 -24 0 -14 7 -19 29 -19 17 0 31 -6 35 -16 9 -23 7 -36 -4 -29
-5 3 -10 1 -10 -5 0 -7 7 -9 15 -6 8 3 22 9 30 12 8 3 15 2 15 -4 0 -5 -7 -12
-15 -16 -24 -9 -18 -29 8 -24 19 4 22 0 22 -21 0 -21 4 -26 22 -24 15 2 24 -4
29 -20 7 -22 17 -32 62 -64 21 -14 24 -14 41 1 18 17 20 16 30 -1 6 -10 11
-13 11 -8 0 6 4 4 8 -3 12 -18 93 -5 85 14 -3 8 -11 14 -19 14 -8 0 -14 8 -14
18 0 9 -9 23 -20 30 -21 13 -27 42 -9 42 8 0 8 5 -1 15 -7 8 -19 15 -26 15 -9
0 -14 11 -14 31 0 24 3 30 16 25 9 -3 28 -9 42 -12 15 -4 32 -11 37 -18 6 -6
32 -21 58 -34 41 -19 47 -25 37 -37 -15 -18 1 -20 18 -3 9 9 18 9 37 0 14 -7
37 -12 51 -12 14 0 35 -5 47 -12 12 -6 35 -11 50 -10 36 3 68 -14 61 -33 -4
-8 -10 -12 -15 -9 -5 3 -9 -8 -9 -23 0 -16 -6 -35 -12 -43 -10 -11 -9 -11 6 0
31 23 64 58 68 72 3 9 39 13 134 15 71 1 163 6 204 11 41 5 92 7 113 4 38 -4
38 -4 19 -26 -24 -27 -23 -60 3 -64 11 -2 27 -6 35 -9 8 -3 21 -5 28 -4 14 2
17 -26 2 -31 -12 -4 -1 -48 12 -48 5 0 12 9 15 20 3 11 9 20 14 20 5 0 15 11
21 26 l12 25 12 -23 c7 -12 10 -26 8 -30 -3 -5 3 -8 12 -8 15 0 13 -5 -9 -28
-34 -35 -34 -56 -2 -70 15 -7 25 -8 25 -2 0 6 4 10 10 10 6 0 6 -9 0 -24 -7
-19 -4 -30 11 -50 18 -23 19 -25 2 -35 -15 -9 -15 -10 -2 -11 13 0 15 -13 14
-77 0 -43 4 -89 11 -103 6 -14 9 -31 7 -37 -3 -7 -1 -13 4 -13 9 0 10 -7 14
-83 1 -26 6 -50 11 -53 4 -3 8 -17 8 -32 0 -15 9 -40 20 -57 11 -16 20 -47 20
-67 0 -21 5 -38 10 -38 11 0 9 -37 -3 -56 -8 -14 19 -39 42 -39 10 0 15 -7 13
-19 -2 -10 -1 -30 3 -44 5 -21 8 -23 16 -11 6 10 9 1 9 -28 0 -50 0 -51 -117
-28 -43 9 -154 29 -248 44 -93 16 -171 34 -173 40 -2 6 -12 11 -22 11 -10 0
-22 9 -25 20 -4 11 -20 27 -36 35 -16 9 -29 20 -29 26 0 6 -7 9 -15 5 -8 -3
-15 -1 -15 3 0 11 -88 67 -120 76 -24 7 -24 7 -5 -9 16 -12 17 -15 4 -16 -9 0
-19 3 -23 7 -12 12 -46 10 -46 -4 0 -7 6 -13 13 -13 21 0 40 -17 32 -29 -5 -9
-10 -9 -22 0 -12 10 -16 10 -23 -1 -7 -11 -14 -12 -32 -3 -13 6 -31 14 -40 17
-19 6 -25 36 -7 36 5 0 8 4 4 10 -8 13 -35 1 -35 -17 0 -11 -4 -13 -12 -5 -19
15 -138 15 -135 0 1 -7 -13 -15 -33 -18 -30 -5 -32 -6 -12 -12 12 -3 22 -13
22 -22 0 -20 -10 -20 -46 -1 -18 9 -41 13 -61 9 -40 -8 -56 1 -44 24 13 24 -8
47 -44 48 -16 1 -24 -1 -17 -3 19 -7 14 -21 -9 -28 -16 -5 -19 -12 -15 -30 6
-24 12 -24 -102 -10 -90 11 -132 13 -132 5 0 -13 32 -23 84 -27 27 -2 58 -11
70 -20 19 -14 20 -15 1 -7 -18 7 -50 8 -117 5 -36 -2 -62 3 -70 14 -5 7 -10 7
-15 0 -9 -12 -48 -13 -59 -2 -11 11 -26 8 -18 -4 4 -6 -1 -9 -12 -8 -11 2 -25
0 -33 -5 -10 -6 -12 -5 -7 2 4 7 5 16 1 22 -8 13 -35 1 -35 -16 0 -8 -10 -14
-25 -14 -14 0 -25 -4 -25 -9 0 -10 -12 -9 -45 3 -65 24 -66 25 -55 46 14 25
14 113 2 205 l-9 70 -3 -110 c-3 -139 -8 -159 -43 -163 -19 -2 -27 -9 -27 -22
0 -28 33 -42 65 -30 20 8 30 7 40 -4 12 -12 11 -15 -8 -19 -12 -2 -64 -4 -114
-3 -51 0 -93 -2 -93 -6 0 -5 -10 -8 -23 -8 -39 0 -121 -31 -140 -53 -21 -24
-33 -17 -17 12 10 20 9 21 -17 15 -15 -4 -34 -13 -41 -21 -7 -7 -22 -13 -32
-13 -11 0 -25 -10 -31 -22 -19 -35 -32 -45 -51 -40 -10 2 -18 0 -18 -6 0 -12
-59 -34 -71 -26 -5 3 -19 -2 -31 -10 -29 -21 -84 -21 -96 -1 -5 11 -24 16 -53
16 -70 1 -79 0 -77 -13 2 -9 -7 -12 -27 -10 -38 4 -41 8 -24 28 13 16 12 17
-11 10 -37 -10 -91 -13 -96 -4 -9 14 -25 9 -22 -6 2 -8 -1 -14 -7 -13 -5 1 -9
5 -7 10 2 7 -4 9 -30 11 -7 1 -21 9 -31 19 -12 12 -28 17 -44 14 -19 -3 -26 1
-33 19 -10 25 -25 31 -35 14 -9 -15 -35 -12 -35 3 0 7 -18 23 -40 36 -35 19
-41 20 -46 7 -7 -19 -35 -22 -32 -3 4 15 -54 19 -64 3 -6 -8 -8 -7 -8 2 0 6
-7 12 -15 12 -8 0 -15 9 -15 19 0 16 -10 20 -59 26 -33 4 -69 4 -80 1 -12 -3
-31 -9 -42 -12 -19 -5 -20 -4 -8 9 8 8 17 13 21 11 4 -3 6 4 5 14 -1 13 -9 19
-29 19 -23 0 -28 -4 -26 -21 2 -15 -3 -22 -18 -24 -16 -2 -22 2 -20 14 1 13
-10 20 -44 27 l-45 10 38 17 39 17 -54 7 c-29 4 -63 7 -75 8 -14 0 -23 6 -23
15 0 13 -9 15 -52 8 -29 -4 -69 -6 -88 -5 -19 2 -72 4 -118 4 -59 1 -82 5 -82
14 0 6 -5 12 -11 12 -6 0 -9 -7 -5 -15 7 -18 -1 -19 -18 -2 -7 7 -11 17 -9 24
6 17 -16 27 -23 10 -6 -16 -44 -12 -44 4 0 12 -87 11 -95 -1 -3 -5 -25 -7 -49
-4 -27 4 -46 2 -50 -5 -9 -13 -56 -15 -56 -2 0 5 6 11 13 14 6 2 -1 6 -16 9
-19 4 -30 1 -34 -8 -6 -17 -30 -18 -35 -2 -3 7 -9 8 -19 3 -8 -5 -21 -8 -30
-7 -9 2 -19 -5 -23 -14 -6 -15 -8 -15 -31 0 -30 20 -55 21 -55 1 0 -30 -91
-56 -115 -32 -13 13 -13 16 0 21 11 4 13 14 8 37 -4 23 -3 30 5 25 7 -4 12 -2
12 3 0 6 7 11 15 11 8 0 15 5 15 10 0 17 -24 11 -56 -12 -18 -14 -28 -30 -26
-41 3 -15 -2 -17 -42 -13 -25 2 -46 0 -46 -5 0 -5 -5 -9 -12 -9 -9 0 -9 3 0
12 27 27 9 26 -38 -3 -27 -17 -50 -37 -50 -45 0 -9 -4 -13 -8 -10 -10 6 -82
-41 -82 -52 0 -21 -112 -63 -205 -77 -55 -9 -170 -29 -255 -46 -85 -17 -173
-35 -195 -39 -22 -5 -41 -7 -42 -6 -8 7 24 66 35 66 7 0 12 8 10 18 -2 9 3 16
10 14 15 -3 16 10 2 24 -10 10 -1 33 40 99 10 17 19 40 19 52 1 12 5 25 11 28
5 3 16 27 24 53 8 26 21 61 30 77 9 17 16 36 16 44 0 7 12 35 26 62 22 39 25
51 15 63 -9 11 -10 20 -2 35 6 11 11 42 11 70 0 37 4 51 14 51 18 0 27 116 11
143 -8 14 -5 21 12 35 18 13 23 28 24 70 1 29 6 55 11 58 15 9 8 24 -8 17 -13
-5 -15 -2 -10 15 4 11 2 23 -4 27 -5 3 -10 1 -10 -4 0 -6 -4 -11 -10 -11 -17
0 -11 30 12 63 16 23 23 47 23 84 l1 53 -23 -22 c-31 -29 -29 -8 3 27 14 15
30 39 35 53 8 22 7 24 -11 19 -27 -7 -26 8 2 27 12 9 17 16 10 16 -10 0 -10 4
0 20 11 16 9 22 -7 35 -19 14 -19 16 -2 26 11 7 17 22 17 48 0 25 7 44 20 56
19 17 19 20 4 28 -16 9 -16 11 1 23 10 8 15 14 10 14 -4 0 0 9 9 19 10 11 24
17 32 14 12 -4 12 0 4 23 l-11 29 26 -26 c31 -31 25 -55 -16 -64 -38 -9 -45
-22 -13 -28 20 -3 30 2 49 31 13 19 21 40 17 46 -12 19 -8 30 15 49 13 10 23
28 23 39 0 22 26 58 42 58 13 0 107 98 100 104 -3 3 2 6 11 6 10 0 25 8 35 18
18 17 79 50 117 63 11 4 21 7 23 8 1 1 10 -3 20 -8z m-433 -2132 c4 -5 0 -18
-9 -28 -9 -10 -16 -23 -16 -30 0 -7 -4 -9 -10 -6 -5 3 -10 -2 -11 -12 0 -11
-3 -13 -6 -5 -2 6 -9 10 -13 7 -5 -3 -7 -12 -3 -20 3 -8 1 -15 -3 -15 -5 0
-15 -13 -22 -28 -17 -40 -52 -74 -68 -68 -9 3 -14 -2 -14 -14 0 -25 -9 -25
-26 -2 -17 22 -17 29 -1 35 6 2 0 2 -15 0 -14 -2 -29 1 -33 6 -3 7 0 8 9 5 11
-4 13 0 9 16 l-6 22 -21 -24 c-12 -12 -27 -36 -34 -51 -13 -29 -38 -28 -27 2
4 9 9 30 12 46 10 61 109 135 179 135 24 0 46 5 49 10 3 6 15 10 26 10 10 0
19 5 19 10 0 13 27 13 35 -1z m-694 -21 c1 -7 1 -16 0 -21 -8 -53 -16 -298
-11 -330 9 -47 -3 -82 -26 -73 -9 4 -14 -2 -14 -16 0 -12 -26 -53 -58 -92 -68
-84 -103 -149 -122 -228 -7 -32 -17 -58 -21 -58 -11 0 -16 97 -7 140 4 19 9
64 11 100 5 58 11 89 45 220 16 64 53 153 94 229 63 118 106 167 109 129z
m6075 -29 c3 -5 9 -7 14 -4 5 3 11 1 15 -5 3 -5 24 -14 47 -20 22 -7 57 -27
77 -46 20 -19 45 -40 55 -48 19 -13 18 -14 -3 -35 -19 -19 -21 -48 -2 -37 4 3
13 1 20 -4 10 -6 8 -10 -8 -15 -21 -6 -22 -7 -4 -21 10 -7 13 -14 7 -14 -7 0
-8 -18 -4 -52 7 -50 -13 -269 -26 -289 -10 -17 -23 3 -26 39 -4 50 -16 48 -24
-3 -4 -29 -14 -51 -25 -58 -11 -7 -19 -17 -19 -24 0 -6 -9 -14 -20 -18 -11 -3
-19 -10 -17 -15 1 -5 -7 -16 -18 -24 -20 -15 -20 -15 3 -16 12 0 22 5 22 10 0
6 5 10 10 10 6 0 10 -7 10 -15 0 -12 10 -15 42 -13 26 1 43 -2 46 -10 2 -7 13
-22 24 -32 12 -11 18 -25 15 -35 -4 -8 -2 -39 5 -68 6 -28 12 -61 13 -72 1
-11 6 -28 10 -38 4 -10 5 -32 3 -50 -6 -39 -1 -57 18 -57 20 0 23 -78 3 -91
-5 -3 -12 -30 -14 -60 -2 -30 -11 -68 -19 -84 -9 -17 -16 -40 -16 -52 0 -34
-16 -68 -51 -108 -25 -28 -30 -38 -19 -45 18 -11 -30 -76 -73 -99 -16 -9 -41
-26 -56 -37 -53 -43 -296 -105 -396 -102 -22 0 -72 -3 -112 -7 -80 -9 -106 -3
-97 20 5 11 22 15 73 15 36 0 71 4 76 8 19 13 37 64 26 75 -5 5 -7 16 -4 24 3
8 -2 20 -12 27 -16 11 -15 14 14 26 21 8 30 18 27 27 -3 8 -1 11 4 8 6 -3 10
-1 10 5 0 7 6 10 14 7 8 -3 22 3 32 14 22 25 40 24 47 -1 7 -29 87 -29 105 0
11 18 9 24 -20 50 -31 29 -34 56 -3 30 13 -11 18 -10 30 6 8 10 14 28 12 38
-1 14 6 22 23 27 14 4 21 7 16 8 -5 1 -3 7 3 15 12 14 5 46 -10 46 -5 0 -9 -7
-9 -15 0 -8 -4 -15 -10 -15 -5 0 -7 -7 -4 -15 5 -11 -1 -15 -25 -15 -26 0 -32
-5 -39 -32 -6 -23 -14 -33 -28 -33 -12 0 -18 6 -16 17 2 12 -2 16 -13 12 -8
-4 -22 -1 -30 6 -9 7 -19 10 -22 6 -4 -4 -2 -11 6 -15 17 -11 -19 -21 -76 -21
-24 0 -43 -5 -46 -12 -3 -10 -9 -10 -26 0 -24 14 -70 16 -103 3 -13 -4 -63
-12 -111 -16 -88 -7 -88 -7 -75 14 7 12 18 21 25 21 7 0 13 5 13 10 0 10 -2
11 -58 16 -18 1 -39 8 -47 14 -12 10 -18 10 -30 0 -10 -8 -15 -9 -15 -2 0 6
-7 9 -15 6 -8 -4 -22 -1 -30 6 -8 6 -19 9 -25 5 -6 -3 -10 3 -10 14 0 23 2 23
-58 25 -25 1 -47 8 -53 16 -8 13 -11 13 -23 -2 -19 -25 -52 -23 -59 4 -4 12
-2 25 4 29 5 3 9 12 7 20 -2 9 7 15 25 17 24 3 27 0 27 -25 1 -24 3 -26 13
-13 15 19 69 19 92 0 12 -10 19 -10 23 -3 4 6 20 15 36 19 19 4 27 3 23 -3 -9
-14 40 -8 58 7 9 7 20 8 32 3 16 -9 25 -9 59 -5 7 1 14 11 17 22 6 22 28 26
57 10 13 -7 21 -7 25 0 3 5 16 10 29 10 12 0 26 3 30 7 4 4 30 9 59 10 37 1
57 -4 75 -18 30 -23 52 -25 52 -4 0 18 31 20 48 3 6 -6 27 -11 47 -10 22 1 35
-3 35 -11 0 -8 18 -23 39 -34 l39 -21 7 25 c3 14 2 30 -4 36 -5 7 -11 17 -13
22 -1 6 -7 10 -13 10 -20 1 -80 30 -98 48 -16 16 -17 21 -6 28 8 5 20 9 27 9
15 0 73 -30 83 -43 7 -10 39 2 39 14 0 5 -5 9 -10 9 -6 0 -15 11 -20 25 -6 15
-17 25 -29 25 -11 0 -28 11 -39 25 -11 14 -28 25 -37 25 -10 0 -33 11 -51 25
-18 14 -36 25 -39 25 -3 0 -21 11 -39 25 -18 14 -38 25 -44 25 -6 0 -15 6 -19
13 -7 11 -111 51 -130 49 -14 -1 -62 31 -58 39 3 4 -5 7 -18 7 -63 1 -188 39
-202 62 -3 5 -16 10 -28 9 -34 0 -81 13 -89 25 -4 6 -2 16 4 23 12 15 48 17
48 3 0 -5 -7 -10 -15 -10 -8 0 -15 -3 -15 -7 0 -5 44 -7 97 -6 91 1 143 -8
208 -36 11 -5 43 -17 70 -26 28 -10 62 -28 77 -39 14 -12 37 -29 50 -39 12
-11 33 -24 46 -30 12 -5 22 -15 22 -21 0 -16 93 -56 116 -50 16 4 20 12 16 30
-2 13 -11 24 -18 24 -8 0 -14 5 -14 11 0 5 -5 7 -12 3 -7 -4 -8 -3 -4 5 4 6 0
14 -8 17 -9 3 -16 14 -16 25 0 24 -38 59 -72 66 -16 3 -28 8 -28 12 0 3 -15
12 -32 20 -18 7 -51 22 -73 32 -22 10 -56 22 -75 25 -19 4 -41 11 -47 17 -9 6
-13 5 -13 -4 -1 -11 -3 -11 -13 1 -14 18 -93 44 -123 41 -11 -1 -31 7 -45 17
-35 28 -67 36 -85 21 -11 -9 -18 -9 -26 -1 -9 9 -15 9 -25 0 -22 -18 -38 5
-19 25 21 20 5 30 -29 17 -29 -11 -63 -6 -115 18 -25 12 -30 17 -17 20 18 4
24 22 7 22 -5 0 -10 5 -10 11 0 6 8 8 19 4 21 -6 49 19 31 30 -20 12 -10 27
15 21 14 -4 25 -2 25 4 0 5 5 10 10 10 6 0 10 -4 10 -10 0 -5 9 -19 20 -30 11
-11 25 -20 30 -20 6 0 10 -4 10 -10 0 -5 5 -10 10 -10 6 0 10 6 10 14 0 26 28
40 55 28 22 -10 25 -9 25 9 0 11 5 17 10 14 6 -4 8 -10 5 -15 -6 -10 19 -20
53 -20 22 0 27 5 28 24 2 21 -19 41 -36 36 -11 -4 -16 38 -8 74 6 28 5 41 -3
46 -6 4 -9 14 -7 21 3 9 11 6 27 -10 16 -16 26 -20 34 -12 7 7 3 16 -14 31
-20 17 -21 19 -4 13 11 -3 23 -11 28 -17 5 -7 10 -6 17 4 9 13 11 13 20 0 12
-19 12 -27 0 -35 -6 -3 -7 1 -4 10 5 11 2 14 -10 9 -21 -8 -21 -34 0 -34 11 0
15 -6 11 -19 -3 -14 -1 -18 9 -14 8 3 14 11 14 17 0 7 11 18 24 24 29 13 66
-8 66 -39 0 -10 5 -19 10 -19 13 0 13 -37 0 -45 -14 -9 -2 -25 14 -19 15 6 29
-22 19 -38 -3 -7 -1 -8 6 -4 7 5 9 16 5 28 -4 14 -2 18 5 14 6 -4 11 -1 11 7
0 8 6 20 14 26 17 14 79 3 73 -13 -6 -15 41 -15 51 0 4 7 15 8 30 3 27 -10 30
-23 3 -14 -13 4 -20 0 -24 -15 -4 -17 -2 -18 15 -9 16 9 24 6 43 -11 13 -12
21 -28 18 -36 -4 -10 0 -12 12 -8 10 4 21 1 25 -7 7 -11 12 -10 28 4 17 16 20
16 25 2 7 -17 37 -21 37 -5 0 6 5 10 11 10 6 0 8 -8 4 -19 -4 -14 0 -20 19
-23 17 -4 23 -1 19 9 -3 7 0 13 6 13 6 0 11 -4 11 -10 0 -5 11 -10 25 -10 14
0 30 -9 37 -20 8 -12 24 -20 39 -20 26 0 44 -21 40 -48 -1 -6 10 -17 24 -22
37 -14 47 -12 44 8 -4 26 11 62 26 62 8 0 20 9 28 20 9 13 20 18 31 14 10 -4
16 -1 16 9 0 8 -9 17 -20 20 -24 6 -38 36 -20 47 9 5 6 13 -12 29 -12 12 -24
34 -24 49 -2 42 -47 141 -66 148 -10 3 -18 15 -18 28 0 13 -11 31 -24 42 -14
10 -22 22 -19 26 2 5 -16 28 -41 50 -25 23 -46 48 -46 55 0 7 -4 13 -10 13 -5
0 -10 4 -10 10 0 12 178 11 186 -1z m703 -45 c12 -15 21 -33 21 -41 0 -8 6
-29 13 -46 30 -70 38 -107 48 -227 18 -203 -3 -437 -42 -474 -9 -8 -10 3 -5
47 7 64 -9 176 -30 219 -8 15 -14 36 -14 48 0 16 -6 20 -32 20 -18 0 -40 5
-48 10 -12 8 -11 10 6 10 44 0 47 18 48 245 1 118 4 215 8 215 4 0 16 -12 27
-26z m-4149 -154 c10 0 22 -9 25 -20 3 -11 11 -20 16 -20 5 0 9 -6 9 -12 -1
-7 -9 -3 -20 10 -10 12 -21 19 -24 14 -7 -12 31 -52 49 -52 8 0 17 -5 21 -12
5 -7 3 -8 -5 -3 -9 5 -12 2 -9 -11 2 -13 10 -18 26 -16 16 2 20 -1 16 -12 -5
-12 1 -14 26 -11 17 2 37 9 45 15 11 9 14 6 17 -12 2 -19 9 -23 41 -23 21 0
41 -6 46 -13 4 -7 15 -10 24 -6 12 4 17 1 17 -10 0 -9 4 -16 10 -16 5 0 7 -7
4 -15 -4 -8 -1 -15 6 -15 7 0 6 -6 -4 -16 -9 -8 -20 -13 -25 -9 -6 3 -22 -7
-37 -22 -14 -16 -23 -22 -19 -14 6 11 2 13 -18 7 -17 -4 -31 -1 -41 10 -14 13
-16 13 -16 1 0 -8 -7 -17 -15 -21 -8 -3 -14 0 -12 7 1 7 -6 11 -16 9 -10 -2
-24 2 -31 8 -8 5 -20 8 -28 5 -8 -3 -22 3 -33 14 -14 17 -15 24 -6 35 15 18 4
43 -11 28 -6 -6 -24 -6 -46 -1 -20 5 -45 6 -55 3 -15 -5 -17 -1 -11 21 6 24 4
27 -15 20 -11 -3 -21 -2 -21 3 0 6 -12 15 -27 21 -56 21 -60 28 -54 118 1 6
10 9 22 6 12 -3 24 -1 28 6 5 8 16 7 40 -5 30 -15 82 -13 80 4 -3 16 3 26 8
15 2 -7 13 -13 23 -13z m-1234 -9 c-3 -5 3 -11 14 -14 14 -4 18 -11 14 -24 -5
-17 -5 -17 9 0 15 18 32 24 22 7 -4 -6 4 -9 17 -7 18 2 23 -2 21 -20 -2 -17 2
-23 18 -23 18 0 20 -4 14 -31 -5 -22 -3 -34 6 -41 10 -6 7 -7 -8 -3 -17 5 -23
2 -23 -9 0 -17 17 -20 44 -10 19 7 21 50 4 57 -7 2 -10 8 -6 12 11 12 35 -18
31 -39 -6 -32 63 -99 91 -89 35 12 79 9 84 -6 3 -10 -2 -12 -22 -7 -26 6 -37
-8 -13 -17 8 -4 7 -6 -3 -6 -9 -1 -22 5 -29 12 -11 10 -14 10 -18 0 -3 -7 -9
-13 -14 -13 -6 0 -7 5 -4 10 3 6 0 10 -8 10 -8 0 -17 -7 -21 -15 -3 -8 -12
-12 -21 -9 -8 4 -17 0 -21 -9 -8 -21 -29 -28 -104 -34 -44 -3 -68 -10 -76 -22
-9 -12 -26 -15 -63 -14 -28 1 -53 -2 -56 -7 -4 -6 -14 -10 -24 -10 -10 0 -24
-7 -31 -15 -7 -8 -30 -18 -51 -21 -21 -4 -40 -13 -43 -20 -3 -8 -12 -14 -21
-14 -8 0 -15 -4 -15 -9 0 -5 -17 -15 -37 -22 -21 -6 -42 -15 -48 -19 -5 -3
-26 -7 -45 -9 -39 -2 -46 -7 -52 -36 -2 -12 -13 -21 -26 -23 -12 -2 -22 -10
-22 -18 0 -8 -8 -13 -21 -11 -12 1 -24 -4 -26 -11 -3 -7 1 -10 11 -6 20 8 20
-5 1 -29 -17 -23 -9 -49 14 -43 9 3 33 7 53 10 30 5 36 3 32 -9 -4 -8 -12 -15
-20 -15 -8 0 -14 -5 -14 -11 0 -7 -11 -8 -30 -4 -22 5 -30 3 -30 -7 0 -7 -18
-22 -40 -32 -30 -14 -40 -25 -40 -43 0 -18 -6 -23 -24 -23 -13 0 -29 -6 -35
-14 -7 -8 -20 -12 -30 -9 -28 7 -36 -16 -9 -26 25 -10 19 -14 -37 -25 -22 -5
-26 -4 -15 4 8 5 12 10 8 10 -4 0 -2 14 4 31 14 42 3 48 -28 14 -20 -22 -23
-30 -12 -37 9 -7 7 -8 -7 -2 -30 11 -107 9 -132 -4 -29 -16 -34 -15 -27 3 4 8
1 22 -6 30 -26 32 -69 407 -49 431 20 24 41 -3 38 -50 -4 -66 0 -106 11 -106
6 0 10 13 10 30 0 23 7 33 30 45 34 18 40 30 10 22 -13 -3 -21 1 -26 15 -7 25
11 39 46 36 21 -3 25 -8 25 -38 0 -28 6 -37 28 -48 15 -7 27 -18 27 -25 0 -8
3 -8 8 -2 4 6 19 16 35 24 15 8 27 18 27 22 0 3 -21 21 -47 39 -27 18 -40 29
-30 26 9 -3 17 -1 17 5 0 6 11 8 29 4 25 -5 29 -3 35 19 7 29 17 32 48 15 27
-14 40 5 26 37 -14 30 -4 54 22 54 17 0 19 3 10 20 -9 16 -6 22 20 35 16 8 30
20 30 27 0 10 34 7 70 -6 17 -6 48 9 38 19 -3 4 -23 8 -43 10 -20 2 -47 13
-60 25 l-24 22 22 22 c13 13 37 23 56 25 19 1 37 4 41 6 4 3 18 -4 30 -15 28
-24 50 -26 50 -4 0 10 6 14 15 10 9 -3 15 0 15 8 0 8 7 17 16 20 23 9 104 -32
113 -57 18 -45 77 -19 69 30 -2 10 2 18 7 18 6 1 25 5 43 9 46 11 41 30 -5 23
-26 -5 -33 -3 -23 3 8 5 23 10 32 10 9 0 19 6 22 13 3 9 8 8 18 -4 7 -9 19
-14 26 -11 7 2 19 -1 26 -7 9 -8 19 -5 36 14 23 25 36 33 26 16z m2004 -361
c-11 -8 -7 -9 15 -4 47 10 50 10 47 -5 -1 -7 5 -25 14 -38 11 -17 13 -28 5
-36 -13 -13 57 -100 76 -93 9 4 19 -8 29 -33 9 -24 24 -41 37 -45 26 -6 87
-60 87 -76 0 -6 7 -13 15 -16 14 -6 105 -179 105 -202 0 -13 35 -96 51 -122 5
-8 12 -22 15 -30 4 -8 25 -53 47 -100 22 -47 40 -93 38 -102 -1 -11 4 -18 13
-18 11 0 16 -10 16 -32 0 -25 3 -29 10 -18 8 12 10 11 10 -7 0 -12 6 -26 13
-30 15 -10 57 -95 57 -117 0 -9 4 -16 8 -16 4 0 8 -9 9 -20 2 -20 -12 -28 -19
-12 -1 5 -18 12 -35 15 -25 5 -33 3 -33 -8 0 -8 -4 -15 -10 -15 -5 0 -10 -7
-10 -16 0 -14 3 -14 15 -4 10 9 15 9 15 1 0 -6 -4 -11 -9 -11 -4 0 -20 -9 -34
-21 -23 -17 -25 -23 -14 -41 23 -41 51 -68 69 -68 21 0 67 47 68 69 0 7 6 11
14 8 8 -3 17 -1 19 6 3 9 14 7 38 -6 19 -9 49 -18 66 -20 34 -2 45 -20 19 -30
-9 -4 -12 -14 -9 -27 4 -17 8 -18 20 -8 10 8 17 8 21 1 4 -6 23 -17 42 -26 48
-20 77 -50 85 -87 4 -17 13 -43 21 -58 8 -15 14 -35 14 -44 0 -10 4 -18 9 -18
15 0 13 -182 -3 -212 -8 -15 -12 -36 -9 -48 3 -11 -1 -28 -9 -38 -7 -9 -20
-29 -27 -43 -14 -29 -85 -91 -110 -97 -75 -19 -175 -3 -177 28 -1 8 -7 31 -15
50 -7 19 -12 38 -11 42 3 12 -57 49 -116 70 -109 40 -329 37 -374 -5 -13 -12
-36 -31 -51 -42 -17 -12 -25 -26 -22 -36 3 -9 0 -29 -7 -45 -6 -16 -12 -33
-12 -39 -1 -5 -10 -17 -21 -27 -23 -18 -21 -23 15 -32 15 -5 20 -4 12 2 -13 9
6 31 57 65 25 17 37 47 20 47 -6 0 -7 5 -4 10 9 14 25 12 25 -3 0 -9 11 -12
35 -9 35 4 46 16 23 25 -7 3 4 6 25 6 27 1 37 -3 34 -11 -5 -18 74 -48 91 -35
8 6 12 6 12 -1 0 -6 7 -9 15 -6 9 4 15 0 15 -10 0 -9 12 -19 26 -22 17 -4 31
-18 40 -41 8 -19 20 -33 27 -30 16 5 37 -17 37 -38 0 -12 5 -15 16 -11 14 5
15 4 4 -9 -7 -8 -21 -15 -31 -15 -11 0 -19 -3 -19 -7 0 -14 121 -8 129 6 6 10
28 12 81 10 56 -3 74 -1 78 10 3 10 -1 12 -17 8 -15 -3 -24 0 -28 10 -7 18 16
35 38 28 9 -3 29 0 45 6 16 7 34 11 41 10 6 -1 14 3 18 9 3 5 -1 10 -9 10 -30
0 -16 16 17 18 17 2 34 7 35 12 2 6 17 10 33 10 28 0 30 -2 27 -32 -2 -24 -8
-33 -20 -32 -10 1 -18 -4 -18 -12 0 -8 4 -14 9 -14 5 0 17 -3 25 -6 12 -4 15
-2 10 9 -7 19 27 40 50 31 20 -8 20 0 2 18 -19 20 -30 58 -16 58 7 0 9 8 5 20
-6 18 -3 20 19 14 23 -5 25 -4 20 12 -4 11 -4 16 1 12 4 -4 14 -3 22 3 20 17
17 -10 -4 -34 -18 -19 -17 -20 5 -8 13 7 26 10 30 7 3 -3 0 -6 -7 -6 -7 0 -9
-4 -6 -10 3 -5 -4 -10 -16 -10 -18 0 -19 -2 -9 -15 7 -8 16 -12 22 -9 5 3 6
-5 3 -19 -4 -14 -2 -28 4 -31 6 -4 11 0 11 8 0 19 21 21 38 4 8 -8 10 -5 6 16
-2 15 0 35 5 44 9 16 10 16 16 0 4 -10 14 -18 22 -18 13 0 13 3 3 15 -16 19
-6 32 13 17 10 -9 17 -5 30 18 10 16 26 32 37 35 24 8 17 25 -11 25 -10 0 -19
6 -19 13 0 8 10 13 22 13 28 -1 35 26 13 48 -9 9 -11 16 -5 16 7 0 8 6 0 19
-7 14 -7 22 1 27 8 4 7 10 -1 18 -9 8 -14 8 -17 -1 -9 -24 -20 -13 -21 19 0
17 -6 34 -11 38 -11 6 -12 16 -12 86 0 22 -5 33 -18 37 -10 2 -25 19 -34 36
-15 30 -14 32 6 42 l21 12 -20 16 c-27 21 -38 75 -20 91 11 8 15 8 18 -1 2 -7
19 1 41 22 39 35 47 59 22 59 -9 0 -12 -6 -9 -15 8 -19 3 -19 -31 -1 l-27 14
23 5 c15 2 7 5 -18 6 -50 1 -70 21 -21 21 18 -1 53 -5 78 -10 25 -5 84 -12
131 -16 48 -3 108 -9 135 -13 l49 -9 -54 -1 c-30 0 -51 -4 -47 -8 10 -11 89
-3 105 10 9 8 15 8 18 2 3 -11 62 -11 398 -1 224 7 328 20 475 58 155 40 246
88 317 168 28 31 103 179 103 203 0 10 4 25 9 35 14 27 31 87 31 107 0 10 9
38 21 62 12 24 19 52 16 63 -6 22 19 48 32 34 6 -7 21 -137 37 -334 4 -45 11
-192 19 -405 10 -258 13 -946 4 -975 -9 -28 -30 -287 -29 -362 0 -37 -4 -50
-20 -60 -24 -15 -26 -28 -5 -28 10 0 15 -11 15 -35 0 -33 -2 -35 -35 -35 -33
0 -35 -1 -24 -21 8 -15 13 -18 18 -10 6 9 11 8 21 -4 11 -14 10 -17 -6 -21
-15 -4 -21 -15 -22 -42 -3 -42 -28 -86 -43 -76 -6 4 -7 10 0 17 5 7 7 25 4 40
-7 36 -38 33 -38 -3 0 -48 -13 -53 -53 -20 -35 29 -37 29 -40 10 -3 -19 40
-70 59 -70 5 0 5 -10 1 -21 -8 -21 -68 -49 -90 -41 -7 2 -12 -2 -12 -9 0 -7
-6 -5 -14 6 -13 18 -15 17 -35 -15 -11 -19 -21 -43 -21 -53 0 -10 -7 -20 -17
-24 -20 -8 -56 34 -50 58 3 10 -1 20 -9 23 -8 3 -14 -1 -14 -10 0 -10 -6 -14
-15 -10 -8 3 -21 -4 -28 -15 -8 -11 -20 -19 -28 -17 -9 2 -15 -15 -21 -52 -10
-65 -28 -107 -61 -137 l-24 -22 -11 23 c-10 23 -2 49 14 44 5 -2 11 2 14 7 3
6 -6 12 -19 13 -13 2 -26 12 -28 23 -6 23 -45 26 -63 4 -8 -9 -21 -13 -34 -10
-21 6 -21 6 -1 -6 42 -26 40 -59 -6 -76 -19 -8 -29 -18 -29 -32 0 -28 -16 -27
-25 2 -9 27 -9 25 -2 65 8 39 -7 43 -20 5 -14 -39 -16 -130 -3 -138 15 -9 12
-35 -5 -35 -9 0 -15 10 -16 23 -3 47 -4 52 -21 55 -9 2 -22 -6 -28 -18 -6 -11
-15 -18 -19 -16 -5 3 -7 -10 -5 -29 2 -29 -1 -35 -17 -35 -26 0 -25 -32 2 -56
l21 -19 -39 -17 c-21 -10 -28 -15 -15 -12 17 4 22 1 23 -13 0 -10 2 -28 5 -40
3 -20 0 -23 -26 -23 l-29 0 24 -26 c14 -15 25 -33 25 -41 0 -18 48 -63 69 -64
9 -1 24 -1 33 0 16 2 15 -2 -5 -33 -27 -43 -39 -45 -55 -8 -20 44 -42 78 -42
65 0 -7 -5 -13 -10 -13 -6 0 -10 6 -9 13 1 6 1 23 0 37 -2 25 -3 25 -13 3 -6
-13 -24 -24 -45 -28 -44 -8 -54 2 -27 24 18 14 19 20 9 34 -7 9 -21 17 -32 17
-16 0 -19 -7 -18 -41 1 -23 7 -44 15 -50 13 -7 12 -9 -2 -9 -10 0 -18 -4 -18
-10 0 -5 7 -10 16 -10 13 0 14 -3 5 -14 -9 -11 -10 -20 -1 -36 17 -33 1 -45
-26 -19 -13 12 -24 18 -24 12 0 -5 9 -18 21 -29 11 -10 18 -26 16 -36 -6 -22
21 -39 50 -32 11 3 37 -2 58 -10 36 -15 37 -17 19 -30 -17 -13 -20 -12 -25 2
-5 14 -6 14 -12 -2 -4 -10 -7 -38 -7 -62 0 -42 -1 -44 -25 -38 -19 5 -25 2
-25 -11 0 -13 6 -16 24 -11 34 8 52 -15 26 -34 -26 -19 -25 -24 8 -39 l27 -13
-22 -15 c-27 -18 -32 -70 -8 -79 11 -5 15 -22 15 -63 0 -51 3 -59 25 -71 15
-8 22 -17 16 -23 -10 -10 -52 9 -64 30 -5 7 -12 11 -18 8 -16 -11 -10 -48 14
-73 l22 -25 -22 6 c-13 3 -23 1 -23 -3 0 -4 -14 -13 -31 -19 -19 -7 -28 -15
-23 -22 4 -7 -1 -18 -11 -25 -10 -8 -17 -15 -14 -16 2 -2 13 -8 23 -14 34 -18
31 -35 -5 -32 -18 2 -34 -2 -36 -9 -3 -7 2 -13 10 -13 8 0 20 -7 27 -15 7 -9
19 -14 26 -11 7 3 16 1 19 -4 4 -6 2 -10 -3 -10 -5 0 -12 -9 -15 -20 -7 -27
-23 -25 -49 5 -16 19 -24 22 -30 13 -4 -7 -5 -21 -2 -30 4 -13 0 -18 -14 -18
-24 0 -56 -46 -47 -68 3 -8 0 -19 -7 -23 -9 -6 -8 -12 5 -27 21 -23 13 -32
-30 -32 -30 0 -38 8 -34 33 3 20 -18 3 -23 -19 -6 -24 -8 -25 -20 -9 -9 13
-17 15 -30 8 -16 -9 -16 -11 -2 -22 9 -8 16 -20 16 -27 0 -23 -28 -16 -46 11
-9 14 -23 25 -30 25 -8 0 -14 9 -14 21 l0 20 -29 -20 c-16 -12 -34 -21 -40
-21 -6 0 -11 -4 -11 -8 0 -16 25 -32 49 -32 21 0 23 -2 11 -10 -13 -8 -12 -10
4 -10 16 0 18 -5 13 -37 -7 -42 -22 -54 -51 -43 -14 5 -29 2 -45 -9 -23 -15
-25 -15 -18 1 3 10 2 20 -3 23 -6 4 -10 2 -10 -2 0 -5 -9 -9 -20 -9 -11 0 -19
5 -19 11 3 29 -2 65 -10 65 -10 0 -34 -87 -26 -99 2 -5 25 -12 50 -15 45 -7
72 -26 37 -26 -11 0 -33 -3 -50 -6 -26 -5 -32 -2 -46 24 -16 31 -53 51 -65 36
-3 -5 -17 -9 -31 -9 -22 0 -25 -5 -28 -38 -3 -34 -5 -37 -28 -31 -21 5 -24 3
-24 -20 0 -21 -5 -26 -24 -26 -19 0 -25 7 -30 32 l-6 33 -29 -34 c-21 -25 -30
-29 -34 -18 -3 8 -1 19 5 25 6 6 7 15 3 22 -5 8 -14 5 -28 -9 -82 -77 -89 -82
-103 -70 -8 6 -14 24 -14 40 0 38 -13 43 -42 15 -23 -20 -24 -24 -9 -33 14
-10 13 -14 -11 -39 -27 -27 -28 -28 -28 -7 0 12 5 25 10 28 16 10 -10 37 -30
32 -21 -5 -40 24 -40 62 0 35 -19 52 -48 44 -22 -5 -32 -43 -12 -43 6 0 10 -6
10 -14 0 -15 -53 -29 -58 -15 -2 5 -12 9 -23 9 -11 0 -19 7 -19 16 0 8 4 13 9
10 5 -3 12 1 15 10 11 28 6 34 -20 24 -41 -16 -77 7 -85 53 -3 20 -9 40 -12
44 -10 9 -37 -17 -37 -37 0 -30 -25 -43 -45 -24 -12 13 -16 30 -13 68 2 36 -2
58 -15 76 -21 30 -21 37 -2 56 28 29 17 39 -43 41 l-58 2 -13 -43 c-10 -35
-10 -48 0 -63 7 -12 9 -31 5 -46 -7 -29 -26 -37 -26 -12 0 8 -4 15 -10 15 -5
0 -10 6 -10 13 0 8 -11 19 -25 25 -39 18 -43 14 -12 -12 l29 -23 -26 -5 c-19
-4 -27 0 -31 13 -9 26 -24 24 -23 -3 2 -48 -1 -56 -22 -51 -11 3 -20 11 -20
18 0 8 -12 12 -30 11 -34 -1 -35 -4 -17 -31 19 -30 15 -118 -6 -121 -10 -1
-18 5 -18 14 -1 10 -3 24 -4 32 -1 8 -3 23 -4 33 -2 26 -18 21 -25 -9 -5 -20
-12 -25 -28 -21 -11 3 -29 2 -39 -4 -11 -5 -28 -14 -39 -19 -16 -8 -20 -7 -20
6 0 11 -6 14 -22 8 -34 -10 -49 -35 -45 -74 4 -37 -21 -72 -63 -85 -13 -4 -20
-15 -20 -31 0 -22 -4 -24 -43 -24 -24 0 -47 4 -53 10 -6 6 -20 4 -38 -5 -27
-14 -30 -14 -44 6 l-15 22 -19 -23 c-16 -20 -18 -20 -18 -4 0 37 47 73 68 52
8 -8 10 -3 8 18 -3 23 -9 30 -32 34 l-29 5 35 22 c19 13 28 23 20 23 -9 0 -26
-7 -39 -16 l-23 -17 17 27 c10 15 13 26 6 26 -5 0 -8 7 -5 15 4 8 1 15 -5 15
-6 0 -11 -4 -11 -10 0 -5 -4 -10 -10 -10 -14 0 -13 43 2 58 8 8 5 21 -16 52
-26 39 -51 55 -40 25 9 -21 -25 -19 -42 3 -12 16 -13 16 -14 0 0 -9 6 -21 13
-25 17 -10 29 -54 19 -69 -4 -6 -18 -11 -32 -10 -21 1 -25 -4 -28 -31 -2 -21
-11 -37 -24 -44 -19 -10 -20 -9 -16 15 6 28 -9 35 -30 14 -9 -9 -12 -8 -12 6
0 10 4 14 12 10 8 -5 9 -2 5 9 -4 11 1 20 13 27 14 7 20 21 20 42 0 25 -3 29
-12 20 -7 -7 -20 -12 -30 -12 -16 0 -23 -17 -19 -43 3 -16 -27 -91 -38 -95
-10 -3 -16 24 -12 58 7 63 10 162 5 157 -13 -13 -32 18 -22 36 5 10 6 26 2 35
-3 9 -6 34 -5 55 2 21 -2 37 -8 37 -6 0 -11 -11 -11 -24 0 -14 -5 -37 -11 -52
-7 -20 -7 -34 1 -50 19 -34 9 -59 -22 -57 -34 2 -78 -38 -78 -72 0 -14 5 -25
10 -25 6 0 10 7 10 15 0 8 7 15 15 15 8 0 22 11 31 26 12 17 20 22 27 15 7 -7
5 -17 -8 -31 -10 -11 -20 -18 -23 -16 -6 7 -32 -20 -32 -33 0 -6 -9 -11 -20
-11 -16 0 -20 -7 -20 -35 0 -39 18 -47 28 -12 5 17 8 12 13 -23 5 -32 3 -52
-8 -68 -13 -21 -13 -26 1 -41 10 -11 14 -26 10 -37 -13 -40 -27 -63 -37 -57
-5 3 -6 -3 -2 -16 4 -15 1 -23 -10 -27 -22 -9 -29 1 -16 25 7 13 8 22 1 26
-12 7 -2 85 12 100 7 7 8 2 3 -12 -4 -14 -2 -23 4 -23 6 0 11 11 11 23 0 22
-4 24 -57 23 -47 -1 -58 2 -61 17 -2 10 3 17 12 17 24 0 19 15 -9 28 -37 17
-45 15 -45 -11 0 -13 -9 -32 -20 -42 -12 -10 -19 -26 -18 -34 2 -10 -8 -21
-25 -28 -24 -11 -30 -10 -47 7 -26 26 -25 30 5 30 14 0 27 6 29 13 2 6 10 33
18 59 12 38 12 45 1 41 -7 -3 -13 -9 -13 -13 0 -5 -12 -27 -27 -49 -18 -28
-34 -41 -49 -41 -25 0 -40 15 -24 25 5 3 10 11 10 16 0 6 -4 8 -9 4 -5 -3 -12
-1 -16 5 -4 6 -10 8 -15 5 -5 -3 -11 -1 -15 4 -3 7 -15 7 -30 1 -15 -6 -27 -6
-30 0 -4 6 -10 10 -14 10 -13 0 -31 -48 -25 -65 4 -8 3 -15 -1 -15 -12 0 -35
28 -35 44 0 18 -16 30 -24 17 -4 -5 -14 -8 -24 -6 -9 1 -23 -2 -29 -7 -9 -8
-15 -4 -22 13 -10 24 -12 22 -15 -16 -1 -17 -8 -20 -53 -20 -39 0 -49 3 -41
12 5 7 17 15 26 18 10 3 27 21 40 40 12 19 30 35 40 35 16 1 16 2 -1 14 -12 9
-14 16 -7 21 5 3 8 11 4 16 -8 13 -41 -17 -60 -53 -10 -19 -22 -28 -38 -28
-13 0 -27 -7 -30 -16 -6 -15 -8 -15 -25 2 -17 17 -17 21 -3 37 19 21 42 22 42
2 0 -33 31 -10 37 28 3 18 -12 23 -22 7 -3 -5 -17 -10 -29 -10 -13 0 -29 -7
-36 -15 -10 -12 -15 -12 -35 1 -12 8 -47 17 -76 21 -30 3 -64 12 -76 19 -18
11 -28 11 -48 2 -14 -6 -24 -17 -21 -24 6 -15 -30 -25 -61 -18 -28 8 -30 21
-3 29 22 7 28 25 8 25 -6 0 -19 -6 -27 -14 -13 -12 -20 -12 -40 -1 l-24 13 21
11 c25 13 29 49 8 57 -7 3 -33 -8 -57 -25 -27 -18 -46 -25 -48 -18 -2 6 1 13
8 15 6 2 11 9 11 14 0 6 -2 9 -6 6 -3 -3 -20 -2 -39 2 -28 6 -33 5 -28 -9 3
-12 1 -11 -11 3 -11 13 -13 23 -6 30 11 11 14 46 4 46 -3 0 -14 -5 -25 -10
-15 -8 -22 -6 -36 10 -10 11 -22 20 -29 20 -6 0 -19 9 -28 19 -10 11 -24 17
-32 14 -8 -3 -16 2 -20 10 -3 8 -17 18 -30 21 -48 12 -12 26 67 26 64 0 79 3
79 15 0 11 -12 15 -47 15 -57 0 -91 16 -55 26 25 7 29 19 7 28 -8 3 -20 17
-27 31 -6 14 -18 25 -25 25 -8 0 -11 -4 -8 -10 3 -5 0 -10 -9 -10 -8 0 -16 -5
-18 -11 -6 -18 -98 -22 -117 -5 -9 8 -29 18 -44 21 l-28 7 20 22 c12 12 21 28
21 35 0 8 7 10 23 5 29 -10 89 -6 101 6 6 6 26 10 45 10 31 1 33 2 18 11 -11
6 -32 9 -47 5 -20 -3 -36 1 -52 13 l-23 19 24 19 c25 21 21 49 -5 39 -18 -7
-54 14 -54 31 0 7 10 18 23 25 22 12 22 12 -8 18 -42 7 -46 38 -6 46 32 7 43
24 16 24 -22 0 -63 -22 -109 -59 -31 -25 -48 -31 -87 -31 -53 0 -61 8 -29 28
11 7 17 18 14 27 -4 8 -1 15 5 15 6 0 11 -4 11 -10 0 -5 7 -10 15 -10 9 0 15
9 15 25 0 14 -6 25 -12 25 -7 0 0 7 16 15 15 8 34 15 41 15 7 0 19 8 26 17 13
15 11 16 -11 10 -14 -4 -45 -10 -69 -14 -36 -5 -43 -4 -35 8 5 8 7 21 6 29 -2
11 8 15 39 15 49 0 62 19 22 32 l-27 9 22 19 c31 27 28 39 -8 32 -22 -5 -30
-3 -30 8 0 8 9 15 20 15 11 0 20 7 20 15 0 22 47 30 68 12 12 -11 22 -13 35
-6 29 17 19 29 -23 29 -33 0 -40 3 -40 20 0 11 5 20 10 20 6 0 10 7 10 15 0
22 -31 18 -37 -4 -3 -11 -11 -22 -19 -25 -20 -8 -17 21 3 33 14 8 15 12 4 25
-8 9 -9 16 -3 16 6 0 12 -5 14 -12 5 -15 48 -4 82 23 24 19 27 27 22 58 -4 25
-1 40 11 53 9 10 13 21 9 25 -11 11 -46 -38 -46 -64 0 -24 -42 -71 -48 -53 -2
6 2 17 8 25 10 13 8 15 -12 15 -13 0 -29 5 -36 12 -16 16 -26 2 -31 -44 -1
-10 -61 -40 -61 -31 -1 5 -8 -4 -16 -19 -15 -29 -44 -38 -44 -14 0 7 16 33 35
57 36 46 42 59 25 59 -5 0 -10 -6 -10 -14 0 -15 -45 -56 -61 -56 -14 0 -10 45
6 66 19 25 19 44 0 44 -34 0 -60 -79 -41 -122 6 -14 4 -18 -10 -18 -11 -1 -30
-7 -44 -16 -24 -14 -23 -14 23 -8 47 6 49 6 45 -17 -2 -18 -11 -25 -33 -29
-22 -4 -30 -11 -30 -25 0 -15 -8 -21 -34 -23 -27 -3 -33 0 -28 12 6 15 -5 21
-28 16 -5 -1 3 12 18 28 27 28 28 33 25 117 -2 73 0 89 15 99 24 18 21 26 -8
26 -16 0 -25 -6 -25 -16 0 -9 -9 -18 -19 -21 -18 -5 -27 -20 -48 -88 -8 -27
-12 -30 -46 -27 -28 3 -37 0 -37 -12 0 -10 -9 -16 -21 -16 -19 0 -20 2 -8 18
8 9 17 19 20 22 3 3 12 19 20 35 8 17 21 30 29 30 18 0 100 85 100 104 0 12
-81 -56 -118 -99 -10 -11 -15 -12 -18 -2 -3 6 -17 12 -31 12 l-26 0 24 18 c13
10 32 21 42 25 9 3 17 13 17 21 0 8 16 24 36 35 19 12 34 27 31 34 -2 6 7 29
20 50 14 22 22 41 19 44 -3 3 -1 14 5 24 7 15 6 19 -6 19 -8 0 -15 -4 -15 -10
0 -5 -6 -10 -14 -10 -10 0 -17 18 -22 57 -8 68 9 109 45 107 19 -1 21 3 15 28
-4 19 -1 35 9 46 19 23 29 52 17 52 -6 0 -15 -9 -22 -20 -7 -11 -16 -20 -20
-20 -13 0 -14 36 -1 63 12 24 12 28 -2 33 -8 4 -22 1 -30 -6 -16 -13 -39 -4
-29 11 3 5 1 16 -5 23 -7 8 -7 23 -1 47 14 47 12 69 -4 69 -16 0 -26 -21 -26
-56 0 -14 -6 -24 -14 -24 -17 0 -29 -25 -30 -60 -1 -20 -7 -26 -28 -28 -28 -3
-38 14 -19 34 9 8 14 62 12 107 -1 11 -13 22 -31 28 l-30 11 30 30 c17 16 33
40 36 54 10 37 32 29 36 -13 2 -20 9 -38 17 -41 10 -3 12 3 7 25 -5 21 -1 36
14 55 25 33 25 34 -3 33 -13 0 -39 -12 -59 -27 -19 -14 -50 -28 -69 -30 -32
-3 -34 -5 -35 -43 -2 -104 -8 -151 -23 -163 -37 -29 -46 -30 -74 -7 -28 21
-28 23 -16 65 7 23 23 49 36 57 26 17 31 38 7 29 -12 -4 -15 -2 -10 9 3 8 1
15 -3 15 -5 0 -11 -6 -14 -12 -2 -7 -8 -9 -13 -5 -4 4 -3 17 4 27 10 16 10 20
-2 20 -8 0 -17 -8 -21 -17 -6 -15 -9 -14 -22 10 -8 17 -20 26 -28 23 -26 -10
-23 6 7 34 22 22 28 34 23 47 -13 29 -16 96 -5 126 6 19 6 26 -1 21 -6 -3 -19
2 -29 11 -10 9 -24 14 -30 10 -8 -5 -5 -11 7 -20 21 -16 26 -82 6 -89 -8 -3
-16 1 -19 9 -9 22 -34 18 -34 -5 0 -11 -4 -20 -9 -20 -5 0 -9 20 -9 45 0 35 3
45 16 45 14 0 17 11 18 55 1 30 -1 55 -5 55 -4 0 -17 -7 -29 -16 -31 -21 -37
-13 -18 25 20 37 20 37 0 45 -12 5 -14 1 -8 -16 6 -19 5 -21 -8 -10 -15 12
-20 58 -20 195 -1 58 2 70 22 87 13 11 20 23 16 28 -4 4 -14 -2 -22 -12 -17
-25 -29 -15 -15 12 12 23 15 85 4 96 -10 9 -20 272 -15 376 1 19 2 73 2 120 0
110 17 411 30 520 5 47 12 123 15 170 4 47 10 98 16 114 5 16 9 45 9 65 0 20
9 83 21 141 11 58 23 128 25 155 8 86 41 215 56 215 5 0 6 9 3 20 -4 13 1 30
14 46 12 15 21 35 21 44 0 10 7 20 15 24 9 3 12 12 8 22 -4 11 -2 15 4 11 6
-4 26 7 43 23 18 17 34 29 36 28 1 -2 5 -30 8 -63 12 -134 19 -172 37 -226 11
-31 18 -65 17 -75 -4 -24 29 -169 48 -212 8 -18 14 -39 14 -48 0 -24 62 -166
91 -209 113 -168 365 -249 883 -283 102 -6 109 -8 93 -24 -15 -15 -15 -17 1
-24 21 -9 53 -5 69 8 9 7 15 6 19 -6 5 -12 10 -14 19 -6 7 6 30 8 53 4 25 -4
42 -2 46 5 9 14 53 15 58 1 2 -5 19 -11 38 -13 33 -4 47 -24 27 -38 -5 -3 2
-18 15 -31 17 -19 32 -25 59 -23 36 2 89 38 89 61 0 7 6 15 13 18 6 3 0 3 -15
0 -46 -10 -31 5 17 17 45 11 68 28 43 31 -21 2 -61 6 -100 10 -21 1 -38 6 -38
9 0 8 39 14 220 34 146 16 366 64 417 90 16 8 36 15 46 15 9 0 17 4 17 9 0 5
10 11 22 14 20 6 20 4 -5 -19 -15 -14 -27 -29 -27 -34 0 -4 -13 -11 -30 -15
-16 -4 -30 -13 -30 -21 0 -7 -9 -19 -20 -26 -11 -7 -33 -30 -47 -51 -24 -34
-28 -37 -39 -23 -10 14 -12 14 -17 2 -3 -8 -1 -16 5 -18 13 -5 3 -38 -11 -38
-5 0 -17 12 -26 27 -16 24 -16 27 -1 38 9 7 16 15 16 17 0 12 -66 15 -84 4
-14 -8 -20 -8 -23 2 -5 14 -71 16 -93 2 -9 -6 -17 -5 -22 3 -4 6 -10 8 -14 4
-9 -9 16 -38 27 -31 5 3 9 0 9 -5 0 -6 7 -11 16 -11 11 0 13 -6 9 -19 -4 -14
0 -21 12 -24 14 -4 13 -5 -4 -6 -13 0 -23 5 -23 12 0 6 -11 17 -25 24 -14 6
-25 7 -25 2 0 -5 4 -9 8 -9 9 0 12 -13 12 -55 0 -45 -3 -53 -17 -48 -7 3 -20
-1 -29 -8 -13 -11 -15 -11 -14 2 5 31 -1 49 -15 49 -8 0 -15 8 -15 17 0 12 -3
14 -11 6 -12 -12 -2 -58 16 -73 14 -12 9 -40 -8 -51 -5 -4 -4 -15 2 -28 9 -17
9 -21 -1 -19 -7 2 -24 -21 -38 -49 -18 -38 -30 -52 -42 -49 -19 4 -31 -19 -23
-45 8 -23 31 -25 39 -3 4 9 9 15 11 12 3 -2 -4 -21 -14 -42 -13 -24 -18 -52
-16 -79 2 -23 -2 -48 -7 -54 -8 -10 -6 -13 6 -13 26 0 18 -17 -18 -38 -21 -13
-44 -18 -58 -15 l-23 6 23 -22 c22 -21 28 -54 16 -85 -3 -9 -10 -16 -15 -16
-13 0 -11 38 2 42 8 3 8 10 -2 26 -14 23 -29 29 -29 12 0 -5 5 -10 10 -10 18
0 10 -28 -10 -33 -10 -3 -27 -21 -37 -41 -9 -20 -21 -36 -26 -36 -5 0 -3 -7 4
-16 12 -15 11 -16 -10 -9 -20 6 -22 4 -17 -13 4 -11 2 -23 -4 -27 -6 -3 -8
-11 -5 -16 4 -5 -1 -9 -9 -9 -17 0 -22 -26 -8 -32 13 -5 1 -78 -12 -78 -7 0
-18 -11 -24 -25 -6 -13 -25 -31 -42 -40 -32 -16 -40 -35 -15 -35 8 0 15 -9 15
-20 0 -11 5 -20 11 -20 5 0 7 -4 4 -10 -3 -5 -1 -18 4 -27 6 -10 11 -13 11 -8
0 6 4 4 9 -4 7 -11 13 -9 30 8 12 12 19 26 16 31 -7 12 34 60 52 60 7 0 21 17
31 38 17 37 22 43 52 62 11 7 12 12 3 17 -15 11 -28 63 -15 63 5 0 16 -10 25
-22 14 -21 16 -22 32 -7 18 18 13 59 -8 59 -6 0 -2 6 8 14 17 12 18 16 5 31
-13 15 -12 19 9 36 25 21 41 17 41 -9 1 -15 2 -15 11 1 8 14 7 23 -6 37 -15
17 -14 18 14 28 23 8 31 18 36 46 4 19 4 39 0 45 -3 6 -1 11 4 11 6 0 11 7 11
15 0 18 43 61 70 70 11 3 20 11 20 16 0 5 9 20 21 32 15 17 19 30 14 55 -4 19
-2 32 5 32 5 0 19 9 30 20 19 19 46 28 36 12 -6 -10 22 -47 30 -39 4 4 2 13
-5 20 -9 11 -8 17 3 26 12 10 24 65 30 150 2 24 14 45 35 66 17 17 31 36 31
42 0 6 11 14 24 17 19 5 23 11 18 28 -5 21 -4 22 11 9 14 -11 17 -11 17 0 0 8
20 25 45 39 27 15 45 32 45 42 0 10 4 18 10 18 5 0 7 -6 4 -14 -3 -8 3 -16 15
-19 12 -3 18 0 15 7 -2 6 6 12 20 12 17 1 23 -2 19 -12 -8 -22 13 -16 30 9 13
18 16 19 16 5 1 -19 16 -24 25 -9 4 5 18 8 34 6 15 -2 41 6 59 16 38 24 50 49
24 49 -12 0 -21 10 -25 25 -4 14 -12 24 -18 22 -8 -1 -13 14 -15 41 -2 31 1
42 12 42 9 0 12 6 8 17 -4 11 -3 14 5 9 7 -4 15 0 18 11 8 26 28 67 35 73 3 3
21 37 40 75 18 39 39 75 45 80 6 6 21 36 34 68 12 31 26 57 31 57 5 0 9 5 9
11 0 15 74 162 99 198 11 15 26 50 33 76 7 26 18 50 25 52 7 3 13 13 13 23 0
9 14 31 30 48 17 18 30 30 30 27 0 -3 9 4 20 15 11 11 20 25 20 30 0 6 5 10
10 10 6 0 10 7 10 15 0 8 16 30 36 49 25 24 34 38 28 48 -23 35 -9 45 69 47
45 1 58 -2 47 -9z m-2077 -515 c12 -11 35 -13 112 -10 53 3 100 7 105 10 4 3
7 -6 6 -19 0 -13 -5 -22 -9 -19 -5 3 -7 -3 -5 -13 2 -16 -4 -19 -42 -22 -25
-1 -56 -3 -70 -4 -33 -3 -132 11 -198 28 -36 9 -61 10 -78 4 -19 -8 -29 -6
-40 5 -14 13 -13 15 10 15 13 0 31 6 38 14 9 9 29 12 56 9 25 -2 42 0 42 7 0
15 56 12 73 -5z m4247 -9 c22 3 32 -2 41 -17 14 -27 6 -34 -43 -32 -22 1 -53
-4 -67 -12 -15 -7 -59 -16 -99 -19 -39 -4 -84 -11 -98 -16 -30 -12 -156 -2
-148 12 3 5 11 8 17 6 18 -3 116 23 146 38 14 8 38 14 52 14 15 0 51 11 80 24
45 19 57 21 72 11 10 -7 31 -11 47 -9z m-5090 -38 c-23 -8 -24 -45 -2 -40 7 1
12 -2 12 -8 0 -5 -4 -10 -9 -10 -4 0 -8 -13 -7 -30 1 -17 7 -30 14 -30 9 0 10
-8 6 -27 -7 -25 -6 -27 9 -14 15 12 17 11 17 -2 0 -9 -4 -19 -10 -22 -5 -3 -7
-20 -3 -38 7 -40 23 -59 23 -29 0 12 5 22 10 22 6 0 10 -11 10 -24 0 -19 6
-25 30 -28 17 -3 30 -1 30 4 0 4 9 8 21 8 13 0 18 4 13 13 -6 9 -4 9 7 1 8 -7
29 -15 47 -19 17 -3 32 -13 32 -20 0 -22 28 -26 35 -4 4 10 11 19 16 19 12 0
12 -13 -1 -26 -6 -6 -2 -16 12 -28 18 -15 20 -16 15 -2 -4 10 -1 16 9 16 9 0
18 -9 21 -19 3 -11 16 -22 29 -25 17 -5 24 -13 24 -31 0 -21 -4 -24 -23 -20
-12 3 -34 2 -47 -4 l-25 -9 25 -10 c22 -9 22 -11 5 -12 l-20 -1 20 -9 c26 -11
23 -12 -65 -15 -62 -2 -83 2 -122 21 -27 14 -48 30 -48 37 -1 15 -46 67 -59
67 -13 0 -29 29 -35 62 -2 14 -9 34 -14 44 -37 69 -82 258 -66 274 19 17 50
15 67 -4 17 -20 17 -20 -3 -28z m624 -13 c21 -7 45 -11 53 -8 8 3 19 0 23 -7
5 -8 30 -12 69 -12 39 0 65 -5 72 -14 6 -8 27 -14 45 -14 19 0 34 -4 34 -10 0
-15 26 -12 40 5 14 17 56 20 65 6 3 -5 19 -12 36 -16 24 -6 28 -9 18 -21 -6
-8 -7 -14 -2 -14 5 0 15 10 22 23 12 22 71 36 71 16 0 -5 11 -3 24 6 21 14 24
14 37 -1 12 -15 11 -16 -8 -10 -17 5 -25 2 -34 -16 -25 -46 -69 -67 -69 -33 0
8 -4 15 -10 15 -5 0 -7 -6 -4 -14 6 -15 -16 -23 -126 -43 -36 -7 -57 -7 -61
-1 -4 6 -14 0 -22 -13 -9 -12 -20 -20 -23 -16 -4 4 -13 2 -21 -4 -10 -9 -13
-8 -13 5 0 9 -6 16 -12 15 -12 -2 -25 2 -74 21 -12 5 -31 6 -41 4 -11 -3 -38
2 -59 12 -21 9 -42 16 -46 16 -5 -1 -8 2 -8 7 0 4 -12 6 -27 3 -16 -3 -30 1
-37 10 -6 8 -22 19 -35 23 -20 6 -23 4 -18 -9 7 -18 -1 -20 -23 -6 -11 7 -12
12 -3 21 9 9 9 18 2 31 -9 16 -7 18 13 13 17 -4 29 1 46 19 25 29 49 32 106
11z m5996 -96 c0 -5 7 -6 15 -3 9 4 15 0 15 -10 0 -9 5 -16 11 -16 6 0 17 -7
25 -15 13 -13 12 -15 -8 -19 -13 -3 -36 -5 -53 -5 -54 1 -89 -14 -150 -64 -82
-68 -82 -68 -56 -132 7 -16 15 -46 18 -65 3 -19 10 -40 15 -47 5 -7 7 -22 3
-34 -4 -13 -2 -24 5 -29 13 -8 17 -210 5 -230 -4 -7 -9 -33 -11 -60 -2 -35 1
-52 15 -67 26 -27 43 -62 36 -73 -3 -5 -1 -11 4 -15 11 -6 20 -60 25 -150 2
-33 7 -76 11 -95 10 -51 14 -222 5 -240 -4 -8 -17 -35 -29 -58 -11 -24 -21
-54 -21 -67 0 -13 -20 -53 -45 -90 -24 -36 -47 -74 -50 -84 -10 -32 -71 -82
-106 -86 -19 -3 -35 -9 -37 -15 -6 -17 -39 -11 -39 8 -2 49 61 129 110 139 21
4 27 10 24 24 -3 10 1 20 9 23 8 3 14 12 14 20 0 8 5 16 10 18 6 2 13 21 16
43 3 22 12 50 20 63 11 17 12 27 5 36 -8 9 -6 22 5 45 9 18 13 35 10 38 -3 3
2 12 12 20 15 13 15 14 1 10 -14 -5 -15 0 -8 31 4 20 4 41 0 47 -14 18 -21 46
-11 40 18 -11 11 5 -13 31 -13 14 -24 39 -25 60 -2 23 -12 44 -29 60 -15 14
-23 30 -19 39 4 10 -2 19 -18 25 -18 7 -22 14 -19 34 3 15 1 26 -6 26 -6 0
-11 -8 -11 -17 0 -12 -3 -14 -8 -6 -10 16 -75 59 -100 67 -28 9 -51 38 -58 74
-5 25 -3 32 9 32 8 0 18 7 21 15 3 9 11 15 18 14 7 -1 21 1 32 6 10 4 21 4 25
-2 9 -14 55 -11 67 5 8 11 13 12 18 4 9 -15 36 -4 36 15 0 12 -3 13 -15 3 -19
-16 -40 -3 -25 16 9 10 9 22 0 49 -14 43 -27 46 -25 6 1 -22 -3 -31 -19 -35
-11 -3 -22 -3 -25 -1 -2 3 1 5 7 5 18 0 14 50 -4 57 -15 5 -15 7 0 15 20 11
21 28 1 28 -9 0 -19 16 -27 43 -7 30 -19 47 -36 55 -32 15 -35 11 -23 -21 11
-28 6 -37 -20 -37 -10 0 -21 12 -27 29 -9 24 -6 32 14 55 14 14 22 26 19 26
-4 0 4 18 16 40 13 22 26 40 31 40 5 0 5 12 2 27 -6 21 -4 25 9 20 21 -8 42
20 39 52 -1 14 7 37 18 51 17 22 20 22 20 6 0 -12 5 -16 15 -12 10 3 15 -1 16
-12 0 -14 2 -14 9 3 4 11 22 30 39 43 17 12 31 29 31 38 0 22 31 50 63 58 15
4 25 11 22 16 -8 13 40 31 60 24 8 -4 15 -2 15 3 0 5 14 8 30 5 17 -2 30 -8
30 -13z m-6820 -2784 l24 -25 -21 -38 c-12 -20 -31 -41 -42 -47 -26 -12 -26
-17 -1 -33 14 -8 20 -9 20 -1 0 6 7 9 15 5 9 -3 24 3 35 14 11 11 24 20 29 20
5 0 11 7 15 15 9 23 35 19 29 -5 -3 -12 1 -22 11 -26 20 -8 21 -48 1 -64 -8
-7 -15 -29 -15 -49 0 -20 -6 -43 -13 -51 -12 -16 -112 -70 -128 -70 -33 0 22
59 56 60 40 1 62 40 23 40 -18 0 -20 2 -8 10 18 11 7 25 -14 17 -8 -3 -16 -16
-18 -29 -5 -36 -40 -31 -45 7 -6 39 -10 42 -28 19 -8 -10 -15 -14 -15 -8 0 5
7 19 15 30 19 25 19 34 0 34 -18 0 -20 17 -2 23 8 3 4 13 -13 31 -16 17 -21
30 -14 34 6 4 14 14 18 22 3 8 4 3 1 -11 -7 -41 20 -44 44 -6 20 32 12 49 -13
28 -11 -9 -15 -6 -20 13 -10 40 1 56 45 65 3 0 16 -10 29 -24z m1403 -2320
c17 -19 36 -35 42 -35 21 0 56 -46 49 -64 -5 -14 -9 -15 -15 -5 -4 8 -11 10
-15 6 -10 -10 15 -37 30 -31 7 3 21 -4 31 -16 18 -19 18 -20 -1 -21 -46 -2
-66 -7 -77 -19 -10 -10 -8 -12 7 -6 25 9 88 -4 83 -17 -5 -15 -91 -26 -104
-13 -4 3 -7 22 -8 41 0 28 3 35 18 35 10 0 15 5 12 10 -3 6 -15 10 -26 10 -10
0 -19 4 -19 9 0 4 -13 8 -29 7 -23 -1 -29 -5 -28 -21 1 -11 -5 -21 -15 -23
-24 -5 -23 14 2 45 11 14 20 35 20 47 0 12 5 27 11 33 9 9 8 16 -5 28 -9 9
-16 21 -16 26 0 19 23 8 53 -26z m-405 -31 c12 -4 22 -13 22 -20 0 -8 9 -14
20 -14 12 0 32 -7 45 -16 14 -9 34 -14 46 -11 16 4 18 3 9 -8 -9 -10 -7 -18 8
-33 21 -21 99 -41 87 -23 -3 6 -3 11 2 12 4 0 20 2 36 4 22 3 27 0 27 -17 0
-12 -8 -22 -21 -25 -16 -4 -17 -8 -7 -14 18 -12 28 -11 26 2 -5 21 20 20 27 0
3 -12 10 -21 15 -21 4 0 13 -13 18 -29 10 -27 14 -29 67 -30 46 0 60 -4 72
-21 12 -17 17 -18 36 -8 12 7 30 11 41 9 15 -2 17 2 12 23 -9 35 3 38 47 12
37 -22 37 -23 17 -43 -18 -20 -18 -22 -1 -37 20 -18 47 -21 56 -6 4 6 11 8 16
4 5 -3 7 -10 3 -15 -3 -6 3 -13 15 -16 27 -7 27 -33 1 -40 -11 -3 -20 -9 -20
-14 0 -5 -7 -9 -15 -9 -22 0 -18 -17 5 -23 11 -3 24 -15 28 -28 7 -19 10 -20
15 -6 9 25 27 21 28 -5 l0 -23 9 22 c6 15 15 20 30 16 11 -3 22 -9 25 -13 3
-5 15 -6 28 -2 19 5 20 4 8 -11 -7 -9 -17 -14 -23 -11 -5 3 -15 0 -23 -6 -9
-8 -29 -9 -55 -5 -26 4 -40 3 -40 -4 0 -6 5 -11 11 -11 14 0 59 -47 59 -61 0
-5 -4 -9 -10 -9 -5 0 -10 5 -10 11 0 5 -5 7 -11 4 -6 -4 -13 1 -15 12 -3 10
-20 23 -39 29 -19 6 -32 7 -29 2 6 -10 6 -10 -34 1 -18 6 -42 7 -53 3 -18 -7
-18 -9 -3 -30 8 -12 22 -22 30 -22 8 0 14 -4 14 -10 0 -5 6 -10 13 -10 16 0
65 -49 51 -51 -22 -3 -49 4 -70 17 -16 11 -24 12 -29 4 -4 -6 -5 -12 -4 -13 2
-1 14 -8 26 -14 13 -7 46 -13 75 -13 28 0 48 -3 45 -7 -4 -3 -2 -12 4 -20 9
-10 8 -13 -5 -13 -9 0 -16 5 -16 12 0 9 -3 9 -11 1 -8 -8 -6 -18 6 -37 20 -30
32 -32 63 -10 29 20 52 4 52 -37 0 -26 -3 -29 -35 -29 -24 0 -35 5 -35 15 0 8
-6 15 -14 15 -23 0 -46 -11 -41 -20 2 -4 -4 -15 -15 -25 -26 -23 -25 -31 3
-41 17 -6 12 -8 -28 -11 -27 -3 -53 -9 -56 -15 -4 -6 -12 -8 -18 -4 -19 12 10
46 29 36 34 -18 55 32 23 55 -10 8 -16 27 -17 52 0 27 -4 39 -12 36 -6 -2 -10
-13 -7 -24 7 -24 -6 -25 -22 -2 -11 15 -12 10 -8 -31 4 -35 3 -47 -6 -42 -6 4
-11 15 -11 25 0 27 -24 43 -54 35 -20 -5 -26 -2 -26 10 0 9 -4 16 -9 16 -5 0
-8 -15 -7 -32 1 -37 32 -62 54 -45 8 6 12 6 12 -2 0 -6 7 -11 15 -11 11 0 13
-8 9 -32 -9 -52 -12 -58 -31 -58 -12 0 -14 3 -6 11 6 6 9 18 6 26 -6 15 -50
62 -58 63 -3 0 -13 0 -22 0 -13 0 -14 3 -5 12 7 7 12 23 12 36 0 18 -5 23 -22
20 -18 -2 -24 3 -26 21 -5 35 11 46 42 26 14 -10 26 -14 26 -10 0 4 6 2 14 -4
10 -9 16 -9 21 -1 9 14 -13 40 -42 51 -13 5 -23 15 -23 22 0 9 -15 13 -47 13
-42 1 -47 3 -47 22 0 12 4 22 9 21 6 0 9 -7 9 -15 -2 -15 8 -19 20 -7 4 4 16
8 26 8 11 0 20 5 19 10 0 6 -6 9 -12 8 -17 -2 -60 54 -51 68 4 8 9 7 15 -2 5
-8 9 -9 9 -3 0 17 59 4 74 -17 7 -10 16 -16 20 -12 4 4 11 1 15 -6 7 -10 13
-11 30 -2 25 14 28 41 4 48 -27 7 -66 60 -56 75 13 21 10 32 -12 44 -30 16
-35 8 -33 -46 2 -52 -3 -66 -22 -55 -8 5 -8 11 1 21 13 16 3 21 -46 26 -18 2
-30 9 -31 18 -2 27 -16 50 -30 50 -8 0 -14 5 -14 10 0 6 11 10 25 10 14 0 25
-4 25 -10 0 -19 28 -10 33 12 8 27 1 38 -24 38 -10 0 -19 5 -19 11 0 6 -8 8
-17 5 -16 -4 -63 23 -63 37 0 3 9 7 21 10 40 11 15 32 -37 31 -27 -1 -51 1
-54 5 -11 13 -50 31 -50 22 0 -5 6 -11 13 -14 6 -2 9 -8 5 -12 -4 -4 -14 -3
-22 4 -8 6 -18 11 -22 9 -5 -1 -19 4 -32 11 -22 12 -22 14 -8 30 29 32 21 40
-54 56 -50 11 -71 26 -65 45 4 13 1 22 -9 26 -9 3 -16 12 -16 20 0 15 21 18
58 8z m3576 -28 c-3 -13 -1 -33 5 -44 6 -12 7 -23 2 -26 -4 -3 -6 -17 -4 -31
4 -18 0 -27 -13 -32 -11 -3 -32 -16 -49 -27 -36 -25 -92 -31 -97 -10 -3 12 -7
12 -31 -1 -15 -8 -35 -11 -43 -8 -9 3 -20 0 -26 -8 -8 -11 -9 -10 -4 4 3 11 0
17 -9 17 -8 0 -14 -3 -14 -7 4 -24 -4 -33 -33 -41 -39 -10 -54 -52 -19 -52 11
0 31 -5 44 -11 21 -10 30 -6 71 25 49 37 79 45 92 24 5 -7 0 -9 -14 -6 -12 3
-29 0 -39 -8 -17 -12 -16 -13 5 -14 49 0 13 -26 -59 -41 -84 -18 -115 -34
-123 -63 -8 -31 1 -32 56 -4 56 29 79 28 50 -1 -21 -22 -48 -34 -86 -37 -16
-1 -35 -9 -41 -18 -7 -9 -22 -16 -34 -16 -11 0 -21 -4 -21 -10 0 -5 17 -10 38
-10 20 -1 48 -7 62 -15 l25 -14 -30 -2 c-16 -1 -36 -1 -42 0 -8 1 -10 -5 -7
-13 4 -11 -3 -19 -21 -26 -15 -6 -34 -19 -44 -30 -14 -17 -42 -24 -78 -21 -23
2 -14 20 17 36 52 27 27 65 -28 41 -16 -6 -26 -6 -34 2 -7 7 -33 12 -59 12
-52 0 -79 7 -79 21 0 5 9 9 20 9 11 0 20 5 20 10 0 6 9 10 20 10 31 0 98 30
104 47 4 10 2 13 -8 10 -8 -3 -17 1 -20 9 -3 8 -1 14 4 14 19 0 10 31 -12 40
l-23 9 23 0 c12 1 25 -6 28 -14 5 -12 9 -11 23 5 9 10 30 22 46 26 l30 6 -23
-17 c-12 -9 -26 -14 -31 -11 -5 3 -11 -3 -14 -13 -4 -17 1 -18 55 -14 56 3 59
3 53 -17 -9 -28 18 -27 45 2 25 27 25 38 0 38 -21 0 -27 24 -9 36 8 4 8 9 -1
18 -8 8 -13 7 -19 -3 -5 -7 -11 -9 -14 -4 -3 5 -31 8 -61 5 -31 -2 -56 0 -56
4 1 17 75 46 130 51 63 5 67 7 51 27 -10 12 -6 16 21 22 18 5 38 9 43 9 6 0
16 6 23 13 12 11 42 17 65 13 5 -1 6 3 2 9 -5 9 28 15 73 13 9 -1 12 6 8 21
-7 28 1 38 49 60 22 11 44 25 48 32 13 23 28 16 21 -10z m-1180 -221 c8 -8 21
-13 28 -10 14 6 65 -31 56 -40 -2 -3 -14 4 -26 15 -12 12 -23 16 -27 10 -3 -6
-15 -10 -26 -10 -28 0 -24 -18 6 -26 29 -7 30 -10 10 -30 -17 -17 -20 -44 -5
-44 5 0 14 9 20 20 10 19 12 19 36 4 13 -9 38 -19 55 -23 30 -6 37 -26 9 -26
-8 -1 -14 -6 -12 -13 1 -7 -5 -12 -13 -12 -8 0 -15 7 -15 15 0 13 -3 13 -21 3
-17 -10 -23 -10 -26 0 -3 6 -9 12 -14 12 -6 0 -7 -4 -4 -10 4 -6 -5 -10 -19
-10 -14 0 -26 -4 -26 -9 0 -15 -40 -24 -54 -12 -8 6 -20 9 -28 6 -9 -4 -18 1
-22 12 -7 17 -8 17 -22 -1 -8 -11 -14 -14 -14 -8 0 7 -9 12 -20 12 -21 0 -27
-15 -10 -25 6 -3 10 -12 9 -18 0 -9 -2 -9 -6 1 -2 6 -9 12 -15 12 -6 0 -3 -9
7 -20 17 -19 19 -19 31 -2 9 11 13 13 14 4 0 -9 7 -11 20 -7 11 4 20 2 20 -4
0 -16 29 -13 46 4 21 20 48 20 40 -1 -3 -9 -6 -28 -6 -42 0 -34 -34 -59 -55
-42 -15 12 -35 6 -35 -11 0 -5 6 -9 14 -9 13 0 26 -20 26 -40 0 -4 -23 -7 -51
-7 -34 1 -53 -4 -60 -14 -7 -11 -9 -11 -9 0 0 7 -6 11 -14 8 -8 -3 -17 0 -20
8 -3 9 0 12 10 8 7 -3 14 0 14 6 0 6 -9 11 -20 11 -11 0 -20 -4 -20 -10 0 -15
-38 -12 -47 4 -5 9 -35 16 -88 20 -104 8 -97 8 -122 1 -18 -6 -25 -1 -36 26
-12 29 -13 36 -1 45 18 14 18 25 0 18 -7 -3 -16 2 -20 12 -5 13 -1 16 24 12
16 -3 30 -1 30 4 0 4 23 7 50 7 62 -2 65 -14 5 -23 -25 -4 -45 -12 -45 -17 0
-6 6 -9 13 -6 14 5 79 -27 77 -38 -2 -8 20 -25 33 -25 4 0 7 9 7 20 0 11 -7
20 -15 20 -8 0 -15 5 -15 10 0 13 27 13 35 0 4 -6 16 -3 32 10 14 11 37 20 52
20 l26 1 -30 13 c-16 7 -33 12 -36 10 -4 -2 -10 4 -14 14 -4 11 1 22 14 31 12
7 21 20 21 27 0 8 6 14 13 14 22 0 45 36 40 64 -5 23 -2 26 24 26 16 0 34 -5
41 -12 8 -8 15 -8 27 2 8 7 30 14 47 15 18 2 36 3 41 4 4 1 7 10 7 20 0 17 11
28 32 30 4 1 13 -6 22 -14z m-1062 -1028 c9 -7 16 -22 15 -33 -2 -17 4 -19 46
-16 46 3 59 -6 35 -25 -17 -13 -212 -7 -216 7 -4 12 -69 14 -74 2 -1 -4 -23
-3 -48 2 l-45 11 43 3 c27 2 42 8 42 17 0 7 10 13 23 13 12 0 48 4 80 7 39 5
62 3 72 -5 11 -9 15 -9 15 -1 0 6 -4 11 -10 11 -5 0 -10 5 -10 10 0 13 11 12
32 -3z m6 -170 c8 -6 23 -13 35 -14 12 -2 24 -7 27 -11 8 -11 42 -12 62 -1 12
6 18 6 18 -1 0 -5 7 -10 15 -10 8 0 15 -4 15 -10 0 -5 -4 -10 -10 -10 -5 0
-10 -11 -10 -25 0 -19 -5 -25 -22 -24 -13 0 -17 3 -10 6 24 9 12 28 -21 30
-23 2 -28 0 -17 -7 12 -8 9 -10 -11 -10 -18 0 -28 -6 -32 -20 -3 -11 -11 -20
-17 -20 -7 0 -10 7 -6 15 4 11 -2 15 -21 15 -25 0 -26 0 -8 20 10 11 13 20 7
20 -7 0 -12 7 -12 15 0 19 -17 19 -54 0 -26 -14 -28 -13 -22 1 4 11 -1 22 -14
31 -11 8 -20 17 -20 21 0 11 114 1 128 -11z m69 -157 c12 0 29 -8 39 -17 17
-17 39 -19 134 -10 14 1 36 -3 50 -10 14 -7 30 -13 36 -13 7 0 14 -9 17 -19 4
-15 1 -18 -12 -14 -9 3 -23 12 -32 20 -21 18 -39 0 -39 -38 0 -6 -6 -9 -14 -6
-8 3 -22 -3 -31 -13 -12 -13 -23 -17 -33 -11 -16 9 -50 4 -67 -10 -15 -11
-195 -18 -195 -7 0 4 13 8 28 8 45 0 56 19 26 47 -23 21 -23 23 -6 23 11 0 22
7 26 15 4 12 -5 15 -54 15 -68 0 -83 19 -17 21 31 1 35 3 17 7 -21 5 -17 7 20
13 25 3 54 5 65 3 11 -2 30 -4 42 -4z m98 -180 c3 -5 -3 -10 -14 -10 -12 0
-21 -7 -21 -15 0 -8 -8 -16 -17 -16 -17 -1 -17 -2 0 -6 9 -2 17 -11 17 -19 0
-8 5 -12 10 -9 9 5 14 -16 13 -52 -1 -18 27 -16 49 4 16 14 24 15 49 6 17 -7
37 -9 45 -6 9 3 14 -2 14 -16 0 -14 8 -23 25 -27 27 -7 30 -16 16 -43 -7 -13
-18 -16 -40 -13 -33 5 -39 19 -18 41 10 11 9 13 -6 7 -10 -3 -22 -6 -27 -6 -5
0 -10 -9 -12 -20 -4 -27 -22 -27 -26 -1 -3 18 -9 20 -48 16 -25 -2 -50 -8 -56
-11 -7 -5 -9 -2 -6 8 4 8 2 21 -4 29 -8 11 -9 10 -4 -4 4 -12 -3 -27 -19 -43
-14 -14 -25 -34 -25 -44 0 -37 -29 -21 -58 32 -25 43 -15 57 18 26 l22 -21 -6
21 c-5 14 -1 24 10 30 17 9 12 32 -7 32 -6 0 -7 -4 -4 -10 3 -5 -15 -1 -40 10
-26 11 -60 20 -76 20 -16 0 -29 4 -29 9 0 19 28 30 68 25 44 -5 56 8 30 34 -9
9 1 12 48 12 43 0 66 6 84 20 29 22 36 24 45 10z m2975 -230 c0 -11 9 -35 19
-53 10 -19 21 -56 24 -83 11 -117 60 -216 129 -263 19 -13 43 -42 54 -65 18
-37 23 -41 63 -44 24 -2 53 -9 65 -17 11 -8 35 -15 53 -15 17 0 34 -3 37 -8 2
-4 -35 -8 -82 -10 -48 -1 -104 -5 -124 -8 -31 -5 -38 -2 -48 16 -7 12 -9 36
-6 54 6 29 2 35 -35 62 -23 16 -52 40 -65 53 -37 37 -76 128 -85 201 -4 36
-13 78 -18 94 -12 30 -14 76 -5 100 8 20 24 11 24 -14z m-2926 -15 c-4 -8 -1
-15 5 -15 6 0 11 5 11 10 0 6 5 10 10 10 6 0 10 -6 10 -14 0 -17 39 -23 98
-15 29 4 46 2 53 -7 9 -11 7 -15 -5 -20 -11 -4 -15 -13 -11 -25 7 -20 -9 -26
-21 -8 -3 6 -17 8 -30 5 -14 -4 -24 -2 -24 4 0 13 -27 13 -35 0 -4 -6 -1 -18
7 -27 11 -14 10 -15 -8 -9 -14 4 -26 1 -34 -9 -16 -19 -30 -19 -30 1 0 23 -24
11 -28 -14 -4 -23 -17 -29 -27 -12 -3 6 -2 10 4 10 6 0 8 7 5 15 -4 8 -12 15
-20 15 -7 0 -18 9 -24 20 -9 17 -50 30 -50 16 0 -2 -3 -13 -7 -23 -6 -16 -5
-16 10 -5 9 8 21 11 27 7 13 -8 13 -32 -2 -41 -7 -4 -8 -3 -4 4 4 7 3 12 -3
12 -5 0 -13 -5 -17 -11 -4 -8 -12 -1 -22 17 -10 20 -11 29 -3 32 6 2 11 10 11
17 0 16 35 29 50 20 5 -3 10 -2 10 3 0 5 11 7 25 5 14 -3 31 1 40 11 15 14 15
16 1 16 -9 0 -16 5 -16 10 0 6 11 10 25 10 18 0 23 -4 19 -15z m-4 -170 c0 -9
9 -15 21 -15 15 0 19 4 15 16 -6 15 -4 15 18 0 28 -18 37 -20 35 -8 -3 18 2
26 10 14 4 -7 17 -14 29 -15 23 -1 33 -25 25 -57 -5 -20 -23 -28 -23 -10 0 6
-4 10 -10 10 -5 0 -10 -5 -10 -11 0 -17 -26 -38 -46 -37 -11 0 -27 -3 -36 -7
-15 -6 -18 -2 -18 19 0 14 -5 26 -10 26 -6 0 -10 -6 -9 -12 3 -18 -11 -48 -22
-48 -4 0 -6 6 -3 13 2 7 -4 13 -15 14 -13 1 -18 -3 -14 -13 4 -10 -2 -14 -21
-14 -24 0 -25 2 -16 20 6 11 15 20 21 20 19 0 3 25 -17 25 -10 1 -25 4 -32 8
-16 11 -15 30 2 24 7 -3 19 0 25 6 8 8 11 8 11 -2 0 -10 9 -12 32 -7 22 4 37
1 50 -10 17 -16 18 -16 18 5 0 14 -7 25 -20 28 -21 5 -25 15 -13 26 11 12 23
8 23 -8z"/>
<path d="M15804 21581 c4 -6 4 -17 -1 -23 -4 -7 -9 -79 -10 -159 -1 -81 -3
-151 -4 -155 -1 -5 0 -11 1 -14 2 -3 4 -39 5 -80 2 -78 11 -187 21 -254 5 -32
8 -36 16 -22 5 9 7 24 4 33 -4 9 -6 86 -6 172 2 364 -3 504 -19 509 -8 3 -11
0 -7 -7z"/>
<path d="M16719 18392 c-1 -4 -1 -10 0 -14 2 -12 -27 -10 -34 2 -8 12 -35 13
-54 1 -12 -8 -12 -12 2 -25 8 -9 20 -16 26 -16 6 0 11 -5 11 -11 0 -6 17 -10
43 -9 74 4 87 1 87 -19 0 -25 -29 -35 -49 -18 -10 8 -27 11 -46 7 -21 -4 -38
0 -57 13 -15 11 -41 20 -58 21 -23 1 -30 5 -27 17 3 12 -4 16 -37 16 -22 1
-63 3 -89 6 -36 5 -49 2 -54 -9 -3 -8 -14 -14 -25 -14 -10 0 -16 5 -13 10 3 6
-1 10 -9 10 -23 0 -20 -17 4 -25 23 -7 26 -21 8 -29 -7 -3 4 -5 25 -3 20 2 37
-1 37 -6 0 -5 7 -6 16 -3 9 4 28 -4 46 -19 16 -14 36 -25 44 -25 8 0 14 -4 14
-9 0 -14 29 -21 36 -9 4 7 3 8 -4 4 -7 -4 -12 -2 -12 3 0 14 25 14 48 1 9 -5
43 -16 74 -23 55 -13 83 -9 99 16 4 5 9 4 14 -2 4 -7 2 -18 -5 -26 -9 -11 -7
-12 17 -4 74 24 75 25 40 63 -12 13 -24 39 -25 56 -1 18 -5 37 -8 41 -9 16
-34 10 -34 -8 0 -15 -2 -14 -14 2 -8 11 -12 23 -10 26 2 4 -3 9 -11 13 -8 3
-16 2 -16 -2z"/>
<path d="M14362 17980 c-35 -5 -69 -13 -75 -18 -7 -5 -23 -12 -37 -15 -47 -12
-81 -49 -87 -94 -4 -29 -14 -50 -34 -67 -29 -26 -73 -34 -84 -16 -3 6 -16 10
-27 10 -12 0 -36 11 -54 25 -18 14 -35 25 -38 25 -9 0 -46 39 -46 48 0 4 -12
18 -25 31 -19 17 -25 19 -25 8 0 -9 5 -19 11 -22 5 -4 8 -12 6 -18 -4 -12 15
-36 30 -38 4 0 21 -16 37 -36 24 -28 27 -36 16 -43 -12 -7 -12 -10 2 -15 10
-4 21 -4 26 -1 6 3 12 -3 15 -14 3 -11 16 -24 29 -30 30 -12 68 -45 68 -59 0
-7 9 -3 20 7 38 35 68 47 85 32 19 -16 21 -64 2 -57 -16 6 -11 -39 6 -61 7 -9
5 -18 -7 -30 -9 -10 -16 -22 -16 -25 0 -12 35 -8 48 5 9 9 12 9 12 0 0 -15
-38 -35 -55 -28 -8 3 -25 -8 -38 -24 -17 -20 -28 -25 -35 -18 -7 7 -24 4 -57
-12 -44 -21 -47 -21 -59 -5 -18 25 -43 9 -80 -56 -18 -29 -37 -54 -44 -57 -17
-5 -15 14 3 32 23 23 5 26 -52 8 -36 -11 -55 -23 -59 -37 -10 -33 -66 -86 -85
-80 -10 3 -30 -5 -47 -20 -30 -25 -56 -35 -34 -13 7 7 12 19 12 27 0 11 -4 11
-19 -3 -10 -9 -18 -25 -16 -34 1 -9 0 -11 -2 -4 -6 15 -55 5 -66 -15 -4 -7
-16 -13 -27 -13 -10 0 -21 -9 -25 -19 -3 -10 -18 -22 -33 -26 -35 -9 -62 -33
-62 -56 0 -22 -51 -62 -81 -64 -11 -1 -34 -16 -50 -33 -17 -18 -39 -32 -51
-32 -28 0 -47 -28 -48 -69 l0 -34 24 24 c35 35 54 49 66 49 5 0 10 -2 10 -4 0
-10 -29 -57 -60 -95 l-34 -44 22 -15 c26 -17 28 -43 6 -77 -9 -14 -13 -25 -9
-25 5 0 1 -8 -7 -17 -20 -24 -30 -67 -22 -98 5 -20 9 -23 20 -14 18 15 31 -15
15 -35 -7 -8 -9 -25 -5 -40 4 -19 1 -33 -11 -46 -17 -19 -17 -20 5 -20 12 0
33 -12 46 -27 28 -33 29 -37 9 -57 -19 -19 -19 -30 0 -46 18 -15 18 -86 2
-108 -8 -10 -7 -16 4 -24 11 -7 11 -11 2 -15 -7 -2 -13 -11 -13 -18 0 -7 6
-16 13 -18 7 -3 5 -6 -5 -6 -14 -1 -18 -10 -18 -41 0 -22 5 -40 10 -40 6 0 10
14 10 30 0 35 10 38 27 11 8 -13 9 -21 2 -23 -12 -4 -1 -38 12 -38 4 0 6 7 3
15 -8 19 6 19 31 1 18 -13 22 -10 48 36 17 30 29 68 31 97 5 62 14 91 31 91 7
0 15 9 18 21 3 11 15 23 26 26 12 3 21 13 21 22 0 9 13 24 29 34 16 9 32 28
35 42 4 15 17 30 31 35 18 7 25 17 25 37 0 40 10 49 55 52 22 1 44 6 49 11 13
13 43 13 48 -1 2 -6 15 -12 30 -12 14 -1 24 -5 21 -9 -2 -5 14 -8 35 -8 41 0
86 -18 90 -35 1 -5 32 -11 68 -11 45 -2 71 -7 84 -19 23 -21 113 -48 165 -49
22 -1 46 -5 53 -9 6 -5 12 -5 12 -1 0 3 11 -1 25 -10 14 -9 29 -14 34 -11 5 2
11 -2 15 -10 8 -21 38 -19 34 3 -3 16 -60 51 -85 52 -7 0 -13 5 -13 10 0 6 -6
10 -13 10 -16 0 -57 33 -57 46 0 5 -16 10 -36 12 -20 1 -45 9 -57 17 -12 8
-30 15 -40 15 -13 0 -17 5 -14 15 4 8 2 17 -3 20 -6 4 -10 1 -10 -4 0 -6 -4
-11 -10 -11 -6 0 -5 10 2 25 10 22 16 25 40 20 25 -6 28 -4 28 21 0 22 -3 25
-12 16 -7 -7 -22 -12 -35 -12 -28 0 -31 27 -5 46 23 18 46 18 39 -1 -7 -17 71
-37 90 -23 6 5 47 6 90 3 43 -4 112 -8 154 -9 42 -2 82 -7 89 -11 7 -5 76 -10
152 -11 124 -3 139 -1 144 14 15 49 41 60 36 15 -3 -18 1 -23 21 -23 33 0 40
10 20 32 -21 23 -21 23 118 14 31 -1 62 -7 69 -11 20 -12 -9 -25 -57 -25 -25
0 -43 -5 -43 -11 0 -8 12 -10 34 -6 24 4 39 1 47 -9 11 -14 34 -10 25 5 -3 4
6 15 20 25 13 11 24 25 24 32 0 21 39 28 59 10 10 -9 23 -16 29 -16 7 0 12 -9
12 -19 0 -11 5 -23 12 -27 7 -4 8 -3 4 4 -4 7 -3 12 3 12 6 0 18 9 28 19 13
14 30 19 55 18 20 -1 34 -6 31 -11 -3 -5 0 -6 8 -4 8 3 13 10 12 16 -2 6 4 9
13 5 41 -15 -21 -46 -89 -43 -28 1 -38 -3 -35 -12 3 -8 23 -13 56 -14 29 0 57
-5 64 -12 7 -7 22 -12 34 -12 26 0 46 -22 49 -54 5 -43 16 -65 29 -60 20 8 16
51 -5 70 -29 26 -12 35 56 28 77 -8 103 -1 85 22 -19 22 3 42 25 24 9 -8 37
-14 63 -15 59 -3 57 -2 42 -20 -11 -14 -7 -22 28 -54 40 -36 53 -61 32 -61 -5
0 -10 7 -10 15 0 8 -7 15 -15 15 -9 0 -18 7 -22 16 -5 13 -11 10 -34 -12 -22
-21 -29 -24 -29 -11 0 8 5 19 10 22 6 3 10 10 10 16 0 5 -4 9 -10 9 -5 0 -10
-7 -10 -15 0 -8 -6 -15 -14 -15 -15 0 -30 45 -21 60 3 5 0 12 -6 16 -7 4 -9 3
-5 -4 3 -5 1 -12 -4 -14 -8 -2 -8 -12 -2 -28 8 -20 5 -29 -12 -45 -11 -11 -29
-36 -40 -55 -19 -36 -39 -43 -78 -26 -9 4 -27 6 -40 4 -21 -4 -22 -5 -4 -13
22 -10 56 -41 56 -52 0 -4 -5 -2 -12 5 -13 13 -28 16 -28 5 0 -5 11 -13 25
-20 14 -6 25 -7 25 -2 0 5 7 9 16 9 10 0 14 -6 11 -15 -7 -17 9 -30 18 -14 4
5 13 8 21 5 8 -3 27 0 42 6 15 7 43 13 62 14 19 1 46 4 60 8 14 3 42 8 63 10
33 3 40 0 48 -21 7 -18 13 -22 22 -16 6 6 26 9 42 8 42 -2 50 5 26 22 -23 15
-18 38 5 29 8 -3 14 1 14 9 0 8 3 15 8 16 4 0 20 2 36 4 21 3 36 -4 60 -26 17
-16 37 -29 44 -29 6 0 12 -7 12 -16 0 -10 -5 -14 -16 -10 -10 4 -13 2 -8 -6 5
-7 0 -9 -14 -6 -12 4 -22 2 -22 -3 0 -5 7 -9 15 -9 8 0 15 -4 15 -10 0 -5 11
-10 24 -10 14 0 33 -11 44 -25 16 -20 21 -22 26 -10 4 12 18 15 53 14 27 -1
53 -5 58 -8 17 -10 60 -8 67 3 5 8 11 7 20 -2 8 -8 8 -12 1 -12 -6 0 3 -15 20
-33 18 -19 35 -32 38 -31 4 2 6 -13 5 -34 0 -20 4 -36 9 -35 6 1 10 -13 10
-30 0 -26 4 -32 20 -29 17 2 20 -4 23 -40 1 -24 7 -44 12 -46 6 -2 10 -11 10
-19 0 -10 6 -13 16 -9 9 3 18 6 20 6 2 0 4 9 4 19 0 11 9 22 19 26 11 3 18 13
16 23 -14 70 -13 92 3 92 13 0 13 2 -3 14 -24 17 -28 41 -27 151 1 124 3 135
24 135 21 0 24 -20 6 -38 -9 -9 -9 -15 1 -24 10 -9 12 -9 7 -1 -3 6 0 15 7 20
21 12 32 53 15 53 -7 0 -18 8 -24 18 -15 24 8 84 29 76 8 -3 17 2 20 10 4 9
13 16 21 16 24 0 38 35 26 64 -6 17 -6 35 1 53 8 21 7 30 -3 38 -44 34 -55
118 -20 155 13 14 18 28 13 34 -5 6 -12 26 -16 43 -3 18 -11 36 -17 39 -6 4
-8 2 -5 -3 4 -6 0 -13 -8 -17 -21 -8 -27 8 -10 30 19 25 19 32 -4 39 -10 3
-22 18 -26 32 -3 14 -40 59 -82 99 l-76 73 -23 -24 c-22 -24 -54 -25 -54 -3 0
6 7 8 15 4 9 -3 15 0 15 9 0 9 -6 12 -15 9 -8 -4 -17 1 -21 10 -3 9 -13 16
-21 16 -11 0 -13 -5 -8 -17 4 -10 10 -29 13 -43 5 -23 4 -24 -12 -7 -10 9 -24
17 -32 17 -8 0 -14 5 -14 10 0 19 -17 10 -28 -14 -8 -19 -16 -23 -34 -19 -13
3 -29 13 -36 22 -11 13 -16 13 -33 3 -12 -8 -18 -9 -15 -3 4 5 -3 12 -14 16
-11 3 -20 15 -20 26 0 20 -16 24 -39 10 -12 -8 -13 -14 -3 -36 16 -34 16 -32
-12 -32 -18 0 -28 7 -35 27 -5 16 -7 31 -4 34 3 3 1 12 -5 19 -7 7 -13 22 -16
33 -9 42 -19 63 -32 68 -11 4 -12 -4 -7 -39 3 -24 2 -52 -2 -62 -6 -16 -8 -16
-16 5 -4 12 -15 22 -23 22 -8 0 -16 14 -20 35 -6 32 -36 62 -49 49 -3 -3 -13
12 -22 33 -27 61 -31 68 -46 68 -8 0 -14 -10 -14 -22 0 -11 -3 -24 -7 -28 -11
-11 -48 15 -58 41 -5 13 -16 24 -25 24 -8 0 -15 5 -15 10 0 16 -50 32 -64 21
-14 -12 -56 -3 -56 11 0 5 11 8 23 6 13 -1 32 5 41 15 10 9 13 17 7 17 -6 0
-11 7 -11 15 0 8 5 15 12 15 28 0 -5 13 -42 16 -31 3 -40 1 -40 -12 0 -8 -4
-12 -10 -9 -5 3 -10 15 -10 26 0 12 -11 24 -27 30 -16 6 -35 15 -43 20 -34 20
-42 21 -55 3 -13 -18 -14 -18 -34 0 -12 11 -21 24 -21 30 0 7 -9 18 -20 26
-11 8 -20 20 -20 27 0 7 -7 13 -15 13 -8 0 -15 -5 -15 -11 0 -6 -5 -7 -12 -2
-21 13 -32 10 -48 -12 -8 -11 -26 -21 -39 -23 -28 -3 -53 -21 -46 -32 8 -12
-23 -33 -40 -26 -10 3 -15 -1 -15 -13 0 -10 -8 -25 -18 -34 -23 -21 -111 -16
-124 7 -5 9 -13 14 -18 11 -5 -3 -11 -1 -15 5 -3 5 -15 10 -26 10 -10 0 -27 9
-36 20 -20 22 -62 26 -82 8 -10 -11 -15 -9 -27 7 -9 12 -24 19 -36 17 -16 -3
-19 0 -15 12 5 12 0 16 -18 16 -15 0 -26 7 -30 21 -6 17 -12 19 -33 14 -31 -8
-36 -9 -75 -7 -19 2 -30 9 -37 27 -10 26 -40 35 -40 11 0 -22 -40 -66 -60 -66
-10 0 -20 -6 -23 -14 -4 -9 -14 -12 -26 -9 -24 6 -27 19 -8 26 9 4 9 8 -2 15
-11 8 -10 13 8 28 29 25 27 44 -7 44 -33 0 -60 47 -43 77 26 49 89 78 193 90
43 4 49 2 56 -17 7 -20 9 -20 21 -6 16 19 75 13 102 -10 17 -15 29 -9 29 15 0
21 -53 77 -93 98 -38 20 -178 26 -275 13z m244 -835 c23 17 38 19 28 4 -8 -14
88 -8 99 6 4 7 10 6 15 -1 6 -10 33 -15 142 -27 14 -1 30 -5 35 -8 16 -9 65
-3 77 9 15 15 48 15 85 1 19 -7 29 -7 31 0 4 13 36 14 60 2 30 -15 105 -33
152 -36 52 -4 83 -33 78 -74 -2 -20 -9 -26 -28 -27 -14 -1 -28 3 -31 8 -3 5
-17 10 -30 10 -13 1 -30 6 -36 11 -7 5 -20 7 -28 3 -8 -3 -15 -2 -15 3 0 5
-11 11 -25 13 -18 4 -23 2 -16 -6 7 -9 2 -12 -20 -14 -21 -2 -29 2 -29 14 0
12 -7 14 -32 9 -50 -11 -53 -11 -51 1 1 7 -19 12 -50 13 -29 1 -60 4 -71 7
-12 4 -16 2 -12 -5 12 -19 -5 -12 -23 10 -15 19 -19 20 -32 6 -11 -10 -30 -13
-68 -11 -34 3 -50 1 -46 -6 10 -16 -21 -12 -35 5 -10 12 -16 13 -26 4 -9 -8
-18 -8 -26 -2 -15 12 -48 13 -48 2 0 -4 -3 -14 -6 -23 -5 -12 1 -16 22 -17 16
0 23 -3 17 -6 -25 -10 -12 -22 17 -16 19 3 30 1 30 -6 0 -6 7 -11 15 -11 8 0
15 5 15 10 0 6 4 10 9 10 5 0 7 -8 4 -19 -3 -10 0 -22 6 -25 6 -4 8 -18 5 -31
-9 -35 13 -40 30 -7 31 60 72 37 63 -34 -3 -19 -1 -37 4 -40 5 -3 9 8 9 24 0
18 6 32 16 36 14 5 14 7 -1 22 -11 12 -13 20 -5 29 8 9 8 15 0 20 -18 11 -11
35 10 35 18 0 24 -10 21 -32 0 -3 6 -29 14 -57 9 -27 15 -53 14 -58 -4 -15 13
-63 22 -63 5 0 9 20 9 45 0 25 3 45 8 45 20 -1 33 -20 35 -54 2 -28 9 -40 30
-51 15 -7 27 -10 27 -4 0 23 18 6 22 -21 5 -34 -1 -36 -58 -17 -22 7 -52 12
-69 10 -16 -1 -74 -3 -127 -3 -87 0 -98 -2 -108 -20 -13 -24 -31 -25 -77 -3
-29 13 -36 14 -43 2 -7 -11 -15 -11 -43 -1 -18 7 -52 12 -75 12 -47 0 -50 5
-25 39 l16 24 -35 -6 c-31 -5 -37 -2 -46 18 -10 21 -16 23 -49 19 -21 -3 -49
-9 -63 -13 -39 -11 -159 -1 -156 12 1 7 1 9 -1 5 -3 -5 -13 -8 -23 -8 -11 0
-24 -8 -30 -17 -11 -17 -11 -17 -6 0 7 21 -19 24 -31 3 -6 -10 -29 -15 -76
-17 -37 -1 -71 -7 -74 -12 -3 -5 -13 0 -22 12 -17 22 -17 22 -42 2 -24 -19
-26 -19 -49 -1 -26 19 -50 12 -50 -15 0 -16 -35 -24 -80 -19 -19 3 -44 5 -55
5 -19 0 -19 1 3 19 14 12 20 24 16 31 -5 9 -2 10 9 6 11 -4 17 -1 17 8 0 8 6
15 13 15 15 0 41 45 46 79 2 18 66 48 86 41 13 -5 27 -2 38 8 18 16 24 3 6
-15 -6 -6 -9 -19 -7 -28 3 -15 5 -15 24 2 11 10 23 26 27 36 4 10 23 25 42 33
20 8 33 19 30 24 -4 6 2 13 12 17 10 4 21 11 25 17 4 6 10 -4 14 -22 5 -26 9
-30 20 -21 10 8 14 8 14 0 0 -6 4 -11 10 -11 5 0 9 10 7 23 -1 16 3 22 19 22
12 1 28 6 37 13 11 9 22 10 43 2 15 -6 40 -8 55 -5 15 4 43 7 61 7 18 1 42 7
54 15 12 7 51 15 89 18 43 3 71 10 79 19 15 20 57 24 82 9 17 -11 24 -10 40 2z
m582 -252 c-10 -3 -18 -9 -18 -14 0 -6 9 -7 21 -4 15 5 19 4 15 -4 -4 -6 -3
-11 2 -11 5 0 7 -13 4 -30 -3 -23 0 -30 12 -30 9 0 16 -4 16 -10 0 -5 5 -10
10 -10 6 0 10 6 10 13 0 16 47 40 61 32 5 -4 9 -14 9 -24 0 -11 10 -21 23 -25
41 -11 47 -7 47 28 0 19 5 38 10 41 6 4 10 12 9 18 -1 7 -1 17 0 23 1 12 69
16 77 3 3 -5 -11 -9 -31 -9 -20 0 -34 -4 -31 -9 3 -4 -1 -17 -9 -27 -19 -25
-19 -38 0 -30 17 6 21 -9 5 -19 -6 -4 -8 -16 -4 -27 5 -16 3 -20 -10 -15 -8 3
-18 2 -21 -3 -4 -6 -14 -10 -24 -10 -10 0 -24 -7 -31 -15 -15 -19 -34 -19 -52
-2 -24 24 -66 29 -77 10 -6 -10 -11 -13 -11 -8 0 6 -4 4 -9 -3 -7 -11 -11 -11
-24 2 -8 9 -25 16 -36 16 -20 0 -28 22 -21 55 1 6 3 27 4 48 2 44 14 54 59 54
18 0 24 -2 15 -4z"/>
<path d="M15179 16326 c-2 -3 -22 -7 -44 -10 -22 -2 -73 -13 -113 -24 -55 -14
-72 -16 -68 -6 11 28 -16 24 -43 -7 -20 -23 -30 -28 -36 -19 -4 7 -2 16 6 21
11 7 10 11 -6 23 -26 20 -35 20 -35 0 0 -11 -6 -14 -21 -9 -16 5 -20 3 -17
-11 2 -11 -3 -19 -12 -20 -8 0 -9 1 -3 3 9 3 9 11 -3 29 -28 42 -50 28 -46
-28 1 -10 -4 -19 -11 -19 -6 -1 -19 -3 -27 -4 -8 -1 -23 -3 -33 -4 -10 0 -15
-6 -12 -11 4 -6 15 -8 25 -5 11 3 28 1 39 -4 14 -8 22 -8 27 0 4 8 9 7 15 -2
5 -8 24 -12 52 -10 31 2 46 -2 50 -12 6 -17 107 -17 147 0 19 8 27 7 33 -3 11
-19 57 -18 57 1 0 8 7 15 16 15 8 0 13 4 10 8 -2 4 20 8 50 9 66 2 71 -20 6
-25 -23 -2 -42 -7 -42 -12 0 -4 19 -7 43 -5 58 3 57 3 57 20 0 8 5 15 10 15
14 0 12 28 -2 32 -7 3 -8 6 -3 9 6 3 24 -8 40 -25 25 -24 26 -28 10 -24 -11 3
-27 -1 -34 -9 -17 -19 -8 -27 16 -15 10 5 24 7 30 5 7 -3 25 4 40 15 16 11 38
22 51 26 12 3 32 9 44 12 16 5 20 3 15 -10 -5 -13 -3 -14 13 -3 23 14 27 32 6
24 -10 -4 -16 2 -18 16 -2 15 -11 23 -28 25 -20 3 -22 2 -12 -11 10 -12 7 -14
-18 -13 -19 1 -28 5 -26 13 7 18 -13 27 -29 13 -11 -9 -15 -9 -15 -1 0 6 -11
10 -25 9 -32 -3 -32 -8 6 -39 20 -16 29 -31 24 -38 -5 -9 -11 -7 -22 8 -8 12
-20 21 -28 21 -7 0 -17 9 -20 20 -3 11 -12 20 -20 20 -7 0 -15 7 -19 15 -5 14
-37 21 -47 11z"/>
<path d="M15230 16076 c0 -18 -46 -40 -67 -32 -7 3 -24 0 -38 -6 -19 -8 -29
-8 -47 4 -26 17 -48 13 -48 -9 0 -10 -6 -13 -15 -9 -9 3 -18 -1 -21 -9 -4 -8
-12 -15 -19 -15 -7 0 -15 -6 -18 -12 -3 -9 -11 -7 -28 8 -21 19 -33 21 -84 17
-41 -4 -66 -12 -78 -24 -21 -23 -47 -25 -47 -4 0 8 -9 15 -20 15 -10 0 -23 6
-27 14 -4 8 -24 17 -45 21 -38 7 -57 -4 -84 -51 -17 -29 -25 -12 -9 19 13 25
12 27 -6 27 -10 0 -19 -6 -19 -14 0 -8 -9 -18 -21 -21 -23 -8 -59 -61 -59 -87
0 -10 3 -18 6 -18 11 0 49 23 56 34 15 23 25 -16 14 -56 -9 -30 -44 -47 -56
-28 -6 9 -13 3 -24 -19 -12 -22 -24 -31 -41 -31 -13 0 -26 -4 -29 -9 -7 -10
76 -7 112 4 14 5 22 3 22 -4 0 -6 -9 -11 -20 -11 -24 0 -46 -36 -26 -43 7 -3
19 -1 27 4 22 14 56 11 74 -7 15 -15 15 -18 -1 -35 -9 -10 -32 -21 -50 -25
-51 -9 -29 -27 23 -19 42 6 45 5 56 -24 7 -18 17 -29 27 -28 16 3 62 47 90 86
8 12 24 21 35 21 15 0 3 -16 -50 -65 -63 -59 -68 -67 -57 -85 10 -17 10 -21
-3 -25 -51 -16 -51 -17 -30 -25 11 -4 25 -5 30 -2 6 4 30 9 55 12 29 3 45 10
45 19 0 7 11 21 25 30 20 13 23 13 16 1 -5 -8 -16 -23 -24 -33 -14 -16 -14
-19 3 -31 24 -17 12 -35 -20 -28 -15 2 -25 0 -25 -7 0 -6 -7 -11 -15 -11 -8 0
-19 -9 -24 -19 -9 -15 -6 -22 14 -35 24 -16 24 -16 15 8 -7 21 -6 24 13 25
161 5 171 7 178 32 4 13 7 19 8 14 2 -16 51 -17 51 -1 0 25 28 25 54 1 14 -13
26 -28 26 -33 0 -4 20 -9 45 -11 37 -2 44 1 39 14 -4 11 -2 14 9 9 16 -6 57
31 57 52 0 6 12 23 27 38 19 20 33 26 50 21 30 -7 31 20 1 52 -29 31 -18 37
42 23 43 -10 54 -10 68 3 34 29 102 32 85 3 -4 -6 1 -5 10 3 9 7 17 10 17 7 0
-4 8 -2 18 3 13 7 17 22 16 70 0 33 3 58 7 56 10 -7 32 22 25 33 -3 5 0 23 6
40 14 35 6 51 -16 33 -15 -13 -36 -7 -36 10 0 5 6 9 14 9 8 0 16 7 20 15 3 8
12 15 20 15 7 0 16 -7 20 -15 3 -8 12 -15 21 -15 8 0 15 -4 15 -10 0 -5 5 -10
10 -10 14 0 13 33 -2 48 -7 7 -21 12 -31 12 -10 0 -21 9 -24 19 -6 22 -59 46
-68 30 -7 -10 -8 -10 22 -13 13 -2 26 -6 30 -10 11 -11 -19 -27 -44 -23 -16 3
-24 -2 -29 -16 -6 -19 -7 -19 -16 -2 -7 12 -7 20 1 24 8 5 6 13 -5 27 -8 10
-13 13 -9 7 11 -23 -5 -34 -28 -18 -12 8 -31 15 -42 15 -32 0 -47 19 -29 37
16 16 19 53 5 53 -5 0 -11 -7 -13 -15 -3 -13 -6 -13 -30 -1 -16 8 -28 12 -28
9 0 -3 -7 0 -15 7 -12 10 -15 9 -15 -4z"/>
<path d="M15917 13073 c6 -15 -23 -18 -32 -3 -10 16 -45 12 -52 -6 -3 -8 -12
-13 -19 -10 -7 3 -16 1 -20 -5 -4 -7 -10 -7 -18 0 -7 6 -17 6 -26 1 -8 -5 -23
-7 -33 -4 -10 3 -17 2 -16 -3 4 -21 -2 -33 -17 -33 -10 0 -14 6 -10 15 6 18
-10 20 -20 3 -4 -6 -2 -14 5 -16 13 -4 36 -51 32 -66 -1 -5 7 -6 19 -3 11 3
20 2 20 -3 0 -4 11 -7 25 -7 13 0 24 2 23 6 0 3 0 13 1 21 1 12 4 11 16 -3 9
-13 20 -17 34 -12 16 5 20 3 15 -9 -4 -11 0 -16 15 -16 25 0 28 28 4 45 -18
13 -21 71 -4 88 6 6 20 4 41 -7 29 -14 31 -14 26 0 -4 11 1 18 14 21 28 7 25
21 -4 19 -14 0 -22 -6 -19 -13z"/>
</g>
</svg>
