<svg id="visual" viewBox="0 0 540 960" width="540" height="960" xmlns="http://www.w3.org/2000/svg" xmlns:xlink="http://www.w3.org/1999/xlink" version="1.1"><rect x="0" y="0" width="540" height="960" fill="#020617"></rect><path d="M497 960L493.3 949.3C489.7 938.7 482.3 917.3 479.7 896C477 874.7 479 853.3 471.8 832C464.7 810.7 448.3 789.3 451 768C453.7 746.7 475.3 725.3 477 704C478.7 682.7 460.3 661.3 461.3 640C462.3 618.7 482.7 597.3 483.2 576C483.7 554.7 464.3 533.3 453.5 512C442.7 490.7 440.3 469.3 448.7 448C457 426.7 476 405.3 479 384C482 362.7 469 341.3 463.7 320C458.3 298.7 460.7 277.3 460.3 256C460 234.7 457 213.3 449 192C441 170.7 428 149.3 428 128C428 106.7 441 85.3 439.8 64C438.7 42.7 423.3 21.3 415.7 10.7L408 0L540 0L540 10.7C540 21.3 540 42.7 540 64C540 85.3 540 106.7 540 128C540 149.3 540 170.7 540 192C540 213.3 540 234.7 540 256C540 277.3 540 298.7 540 320C540 341.3 540 362.7 540 384C540 405.3 540 426.7 540 448C540 469.3 540 490.7 540 512C540 533.3 540 554.7 540 576C540 597.3 540 618.7 540 640C540 661.3 540 682.7 540 704C540 725.3 540 746.7 540 768C540 789.3 540 810.7 540 832C540 853.3 540 874.7 540 896C540 917.3 540 938.7 540 949.3L540 960Z" fill="#18181b" stroke-linecap="round" stroke-linejoin="miter"></path></svg>