<svg id="visual" viewBox="0 0 540 960" width="540" height="960" xmlns="http://www.w3.org/2000/svg" xmlns:xlink="http://www.w3.org/1999/xlink" version="1.1"><rect x="0" y="0" width="540" height="960" fill="#020617"></rect><path d="M479 960L477.8 949.3C476.7 938.7 474.3 917.3 472.3 896C470.3 874.7 468.7 853.3 474.5 832C480.3 810.7 493.7 789.3 485.8 768C478 746.7 449 725.3 450.5 704C452 682.7 484 661.3 489.5 640C495 618.7 474 597.3 459.7 576C445.3 554.7 437.7 533.3 446.5 512C455.3 490.7 480.7 469.3 478.8 448C477 426.7 448 405.3 434.3 384C420.7 362.7 422.3 341.3 435.8 320C449.3 298.7 474.7 277.3 487.3 256C500 234.7 500 213.3 497 192C494 170.7 488 149.3 484.8 128C481.7 106.7 481.3 85.3 485.2 64C489 42.7 497 21.3 501 10.7L505 0L540 0L540 10.7C540 21.3 540 42.7 540 64C540 85.3 540 106.7 540 128C540 149.3 540 170.7 540 192C540 213.3 540 234.7 540 256C540 277.3 540 298.7 540 320C540 341.3 540 362.7 540 384C540 405.3 540 426.7 540 448C540 469.3 540 490.7 540 512C540 533.3 540 554.7 540 576C540 597.3 540 618.7 540 640C540 661.3 540 682.7 540 704C540 725.3 540 746.7 540 768C540 789.3 540 810.7 540 832C540 853.3 540 874.7 540 896C540 917.3 540 938.7 540 949.3L540 960Z" fill="#18181b" stroke-linecap="round" stroke-linejoin="miter"></path></svg>