<svg id="visual" viewBox="0 0 540 960" width="540" height="960" xmlns="http://www.w3.org/2000/svg" xmlns:xlink="http://www.w3.org/1999/xlink" version="1.1"><rect x="0" y="0" width="540" height="960" fill="#020617"></rect><path d="M443 960L452 949.3C461 938.7 479 917.3 484.2 896C489.3 874.7 481.7 853.3 476 832C470.3 810.7 466.7 789.3 465.7 768C464.7 746.7 466.3 725.3 468.8 704C471.3 682.7 474.7 661.3 477 640C479.3 618.7 480.7 597.3 473.2 576C465.7 554.7 449.3 533.3 444 512C438.7 490.7 444.3 469.3 451.2 448C458 426.7 466 405.3 473.3 384C480.7 362.7 487.3 341.3 491.5 320C495.7 298.7 497.3 277.3 484.7 256C472 234.7 445 213.3 434.3 192C423.7 170.7 429.3 149.3 442.5 128C455.7 106.7 476.3 85.3 475.7 64C475 42.7 453 21.3 442 10.7L431 0L540 0L540 10.7C540 21.3 540 42.7 540 64C540 85.3 540 106.7 540 128C540 149.3 540 170.7 540 192C540 213.3 540 234.7 540 256C540 277.3 540 298.7 540 320C540 341.3 540 362.7 540 384C540 405.3 540 426.7 540 448C540 469.3 540 490.7 540 512C540 533.3 540 554.7 540 576C540 597.3 540 618.7 540 640C540 661.3 540 682.7 540 704C540 725.3 540 746.7 540 768C540 789.3 540 810.7 540 832C540 853.3 540 874.7 540 896C540 917.3 540 938.7 540 949.3L540 960Z" fill="#18181b" stroke-linecap="round" stroke-linejoin="miter"></path></svg>